<?xml version="1.0" encoding="UTF-8"?>
<svg version="1.1" xmlns="http://www.w3.org/2000/svg" width="512" height="512">
<path d="M0 0 C3.96 0 7.92 0 12 0 C12 1.98 12 3.96 12 6 C13.98 6.495 13.98 6.495 16 7 C16 9.31 16 11.62 16 14 C17.98 14.495 17.98 14.495 20 15 C20 17.31 20 19.62 20 22 C20.99 22 21.98 22 23 22 C24.35439668 24.70879335 24.06501451 27.00933268 24 30 C24.99 30 25.98 30 27 30 C27.12117187 30.56589844 27.24234375 31.13179687 27.3671875 31.71484375 C27.53476562 32.44832031 27.70234375 33.18179688 27.875 33.9375 C28.11863281 35.03384766 28.11863281 35.03384766 28.3671875 36.15234375 C28.82961523 38.20700294 28.82961523 38.20700294 31 39 C31.63817067 41.3045052 32.02037323 43.61496323 32.4375 45.96875 C32.623125 46.6390625 32.80875 47.309375 33 48 C33.66 48.33 34.32 48.66 35 49 C35 51.64 35 54.28 35 57 C36.32 57 37.64 57 39 57 C39 59.64 39 62.28 39 65 C40.32 65 41.64 65 43 65 C43 67.64 43 70.28 43 73 C44.32 73 45.64 73 47 73 C47 75.64 47 78.28 47 81 C48.32 81 49.64 81 51 81 C51 83.64 51 86.28 51 89 C52.32 89.33 53.64 89.66 55 90 C55 92.31 55 94.62 55 97 C55.99 97.33 56.98 97.66 58 98 C58 98.66 58 99.32 58 100 C59.2065625 100.185625 59.2065625 100.185625 60.4375 100.375 C61.283125 100.58125 62.12875 100.7875 63 101 C63.33 101.66 63.66 102.32 64 103 C66.30710878 103.59896093 68.61688718 103.95654965 70.96875 104.33984375 C71.97421875 104.66662109 71.97421875 104.66662109 73 105 C73.33 105.99 73.66 106.98 74 108 C74.94875 107.979375 75.8975 107.95875 76.875 107.9375 C80 108 80 108 82 109 C82 109.99 82 110.98 82 112 C84.31 112 86.62 112 89 112 C89.33 113.32 89.66 114.64 90 116 C92.64 116 95.28 116 98 116 C98 117.32 98 118.64 98 120 C100.64 120 103.28 120 106 120 C106 121.32 106 122.64 106 124 C108.64 124 111.28 124 114 124 C114 125.32 114 126.64 114 128 C116.01822917 127.90234375 118.03645833 127.8046875 120.0546875 127.70703125 C121.01761719 127.85205078 121.01761719 127.85205078 122 128 C122.66 128.99 123.32 129.98 124 131 C126.18505129 131.79437923 126.18505129 131.79437923 128.625 132.1875 C129.44226563 132.34605469 130.25953125 132.50460938 131.1015625 132.66796875 C131.72804688 132.77753906 132.35453125 132.88710937 133 133 C133 133.99 133 134.98 133 136 C135.64 136 138.28 136 141 136 C141 137.32 141 138.64 141 140 C143.64 140 146.28 140 149 140 C149 141.32 149 142.64 149 144 C151.64 144 154.28 144 157 144 C157 145.32 157 146.64 157 148 C157.99 148 158.98 148 160 148 C161.125 152.75 161.125 152.75 160 155 C157.69 155 155.38 155 153 155 C153 156.32 153 157.64 153 159 C150.36 159 147.72 159 145 159 C145 160.32 145 161.64 145 163 C142.36 163 139.72 163 137 163 C136.67 164.32 136.34 165.64 136 167 C134.906875 167.103125 133.81375 167.20625 132.6875 167.3125 C129.07541198 167.60477172 129.07541198 167.60477172 127.5625 169.5625 C125.53493227 171.42786232 124.52065728 171.19696908 121.8125 171.1875 C120.554375 171.125625 119.29625 171.06375 118 171 C118 172.32 118 173.64 118 175 C115.36 175 112.72 175 110 175 C110 176.32 110 177.64 110 179 C107.36 179 104.72 179 102 179 C102 180.32 102 181.64 102 183 C99.36 183 96.72 183 94 183 C93.67 184.32 93.34 185.64 93 187 C90.69 187 88.38 187 86 187 C86 187.99 86 188.98 86 190 C83.29120665 191.35439668 80.99066732 191.06501451 78 191 C78 191.99 78 192.98 78 194 C75.36 194.33 72.72 194.66 70 195 C70 195.66 70 196.32 70 197 C66.17679443 198.42258812 63.08718695 199.24042276 59 199 C59 199.99 59 200.98 59 202 C57.68 202 56.36 202 55 202 C55 204.64 55 207.28 55 210 C53.68 210 52.36 210 51 210 C51 212.64 51 215.28 51 218 C49.68 218 48.36 218 47 218 C47.04125 219.258125 47.0825 220.51625 47.125 221.8125 C47.2390374 225.29064073 47.05925681 225.91111478 45 229 C44.34 229 43.68 229 43 229 C43 231.31 43 233.62 43 236 C41.68 236.33 40.36 236.66 39 237 C39 239.64 39 242.28 39 245 C37.68 245 36.36 245 35 245 C35 247.64 35 250.28 35 253 C34.01 253 33.02 253 32 253 C31.67 255.64 31.34 258.28 31 261 C30.01 261 29.02 261 28 261 C28 263.31 28 265.62 28 268 C26.68 268.33 25.36 268.66 24 269 C24 271.31 24 273.62 24 276 C22.68 276.33 21.36 276.66 20 277 C20 279.64 20 282.28 20 285 C19.01 285.33 18.02 285.66 17 286 C16.34 289.3 15.68 292.6 15 296 C14.01 296 13.02 296 12 296 C12.0309375 297.7015625 12.0309375 297.7015625 12.0625 299.4375 C12 303 12 303 11 304 C9.33570949 304.09823937 7.66718069 304.12973631 6 304.125 C5.0925 304.12757813 4.185 304.13015625 3.25 304.1328125 C1 304 1 304 0 303 C-0.04092937 300.66702567 -0.04241723 298.33294775 0 296 C-0.99 296 -1.98 296 -3 296 C-3.33 293.36 -3.66 290.72 -4 288 C-4.99 287.67 -5.98 287.34 -7 287 C-8.60725635 283.78548731 -8.05748185 280.56387464 -8 277 C-9.32 276.67 -10.64 276.34 -12 276 C-12 273.69 -12 271.38 -12 269 C-12.99 269 -13.98 269 -15 269 C-15.33 266.36 -15.66 263.72 -16 261 C-16.99 261 -17.98 261 -19 261 C-19 258.36 -19 255.72 -19 253 C-20.32 253 -21.64 253 -23 253 C-23.495 249.535 -23.495 249.535 -24 246 C-24.99 245.67 -25.98 245.34 -27 245 C-27.103125 243.88625 -27.20625 242.7725 -27.3125 241.625 C-27.539375 240.42875 -27.76625 239.2325 -28 238 C-29.485 237.01 -29.485 237.01 -31 236 C-31.1875 232.375 -31.1875 232.375 -31 229 C-31.99 228.67 -32.98 228.34 -34 228 C-35.60725635 224.78548731 -35.05748185 221.56387464 -35 218 C-36.32 218 -37.64 218 -39 218 C-39 215.36 -39 212.72 -39 210 C-40.32 210 -41.64 210 -43 210 C-43 207.36 -43 204.72 -43 202 C-44.32 202 -45.64 202 -47 202 C-47 201.01 -47 200.02 -47 199 C-48.27875 198.855625 -49.5575 198.71125 -50.875 198.5625 C-53.25692894 198.29357254 -54.84452691 198.07773654 -57 197 C-57 196.34 -57 195.68 -57 195 C-59.64 194.67 -62.28 194.34 -65 194 C-65.33 193.01 -65.66 192.02 -66 191 C-68.64 190.67 -71.28 190.34 -74 190 C-74 189.01 -74 188.02 -74 187 C-76.31 187 -78.62 187 -81 187 C-81.33 185.68 -81.66 184.36 -82 183 C-84.31 183 -86.62 183 -89 183 C-89.33 181.68 -89.66 180.36 -90 179 C-92.64 179 -95.28 179 -98 179 C-98 177.68 -98 176.36 -98 175 C-100.64 175 -103.28 175 -106 175 C-106 173.68 -106 172.36 -106 171 C-107.258125 171.061875 -108.51625 171.12375 -109.8125 171.1875 C-113.78788599 171.19443785 -113.78788599 171.19443785 -115.5 169.625 C-116.2425 168.820625 -116.2425 168.820625 -117 168 C-119.64291497 167.12609024 -122.27049474 166.58169784 -125 166 C-125 165.01 -125 164.02 -125 163 C-127.31 163 -129.62 163 -132 163 C-132.495 161.02 -132.495 161.02 -133 159 C-135.64 159 -138.28 159 -141 159 C-141 157.68 -141 156.36 -141 155 C-143.31 155 -145.62 155 -148 155 C-148.33 153.02 -148.66 151.04 -149 149 C-147.68 148.67 -146.36 148.34 -145 148 C-145 146.68 -145 145.36 -145 144 C-142.36 144 -139.72 144 -137 144 C-137 142.68 -137 141.36 -137 140 C-134.36 140 -131.72 140 -129 140 C-129 138.68 -129 137.36 -129 136 C-126.36 136 -123.72 136 -121 136 C-120.67 134.68 -120.34 133.36 -120 132 C-118.906875 131.896875 -117.81375 131.79375 -116.6875 131.6875 C-113.07541198 131.39522828 -113.07541198 131.39522828 -111.5625 129.4375 C-109.53493227 127.57213768 -108.52065728 127.80303092 -105.8125 127.8125 C-103.9253125 127.9053125 -103.9253125 127.9053125 -102 128 C-102 126.68 -102 125.36 -102 124 C-99.36 124 -96.72 124 -94 124 C-94 122.68 -94 121.36 -94 120 C-91.36 120 -88.72 120 -86 120 C-86 118.68 -86 117.36 -86 116 C-83.36 116 -80.72 116 -78 116 C-77.505 114.02 -77.505 114.02 -77 112 C-74.69 112 -72.38 112 -70 112 C-70 111.01 -70 110.02 -70 109 C-67.29120665 107.64560332 -64.99066732 107.93498549 -62 108 C-62 107.01 -62 106.02 -62 105 C-61.41992188 104.81824219 -60.83984375 104.63648438 -60.2421875 104.44921875 C-55.62369967 102.96307168 -51.22677822 101.43039748 -47 99 C-46.67 98.34 -46.34 97.68 -46 97 C-45.01 97 -44.02 97 -43 97 C-43 94.69 -43 92.38 -43 90 C-41.68 89.67 -40.36 89.34 -39 89 C-39 86.36 -39 83.72 -39 81 C-37.68 81 -36.36 81 -35 81 C-35 78.36 -35 75.72 -35 73 C-33.68 73 -32.36 73 -31 73 C-31 70.36 -31 67.72 -31 65 C-29.68 65 -28.36 65 -27 65 C-27 62.36 -27 59.72 -27 57 C-25.68 57 -24.36 57 -23 57 C-23.061875 55.741875 -23.12375 54.48375 -23.1875 53.1875 C-23.20137627 49.21888725 -23.20137627 49.21888725 -21.5625 47.4375 C-21.046875 46.963125 -20.53125 46.48875 -20 46 C-19.26958147 42.38976901 -19.26958147 42.38976901 -19 39 C-18.01 38.67 -17.02 38.34 -16 38 C-15.67 35.36 -15.34 32.72 -15 30 C-14.01 30 -13.02 30 -12 30 C-11.67 27.36 -11.34 24.72 -11 22 C-10.01 22 -9.02 22 -8 22 C-8 19.69 -8 17.38 -8 15 C-6.68 14.67 -5.36 14.34 -4 14 C-4 11.69 -4 9.38 -4 7 C-2.68 6.67 -1.36 6.34 0 6 C0 4.02 0 2.04 0 0 Z " fill="#0081DE" transform="translate(248,99)"/>
</svg>
