<?xml version="1.0" encoding="UTF-8"?>
<svg version="1.1" xmlns="http://www.w3.org/2000/svg" width="512" height="512">
<path d="M0 0 C7.30962786 5.23605673 11.15914325 10.47742974 14 19 C14.09084396 20.85214456 14.1219511 22.70744305 14.12025452 24.56181335 C14.12231651 26.297108 14.12231651 26.297108 14.12442017 28.06745911 C14.12082489 29.33772446 14.11722961 30.60798981 14.11352539 31.91674805 C14.11324334 33.26692706 14.1134016 34.61710623 14.1139679 35.96728516 C14.11425517 39.63435933 14.10836971 43.30140089 14.10139394 46.96846747 C14.09514878 50.80016906 14.09455568 54.63187138 14.09336853 58.46357727 C14.09025865 65.72021628 14.08204987 72.97684026 14.07201904 80.23347265 C14.06084727 88.49456797 14.05534477 96.755664 14.05032361 105.016765 C14.03986698 122.01118537 14.02227416 139.0055911 14 156 C14.69776519 155.99631283 15.39553038 155.99262566 16.11443996 155.98882675 C33.11673173 155.90037097 50.11896481 155.83423955 67.12143612 155.79275131 C75.34381833 155.77215303 83.56604666 155.74408498 91.78833008 155.69824219 C98.9574507 155.65829039 106.12645983 155.63254732 113.29568869 155.62364602 C117.08946227 155.61844531 120.88291698 155.6062795 124.67658806 155.57707977 C128.25285429 155.54977836 131.82867256 155.54158436 135.40503311 155.54756927 C137.33208706 155.54595701 139.25909306 155.5245116 141.1860199 155.50231934 C151.43870458 155.55070614 158.65750006 158.00801902 166.20703125 165 C173.94414958 173.63051108 174.6913663 182.96600235 174.17041016 194.06005859 C173.41315779 202.68058484 168.31383849 209.40545957 162 215 C156.71750496 218.40866881 151.6985354 220.12598219 145.43818665 220.12025452 C143.702892 220.12231651 143.702892 220.12231651 141.93254089 220.12442017 C140.66227554 220.12082489 139.39201019 220.11722961 138.08325195 220.11352539 C136.73307294 220.11324334 135.38289377 220.1134016 134.03271484 220.1139679 C130.36564067 220.11425517 126.69859911 220.10836971 123.03153253 220.10139394 C119.19983094 220.09514878 115.36812862 220.09455568 111.53642273 220.09336853 C104.27978372 220.09025865 97.02315974 220.08204987 89.76652735 220.07201904 C81.50543203 220.06084727 73.244336 220.05534477 64.983235 220.05032361 C47.98881463 220.03986698 30.9944089 220.02227416 14 220 C14.00368717 220.69776519 14.00737434 221.39553038 14.01117325 222.11443996 C14.09962903 239.11673173 14.16576045 256.11896481 14.20724869 273.12143612 C14.22784697 281.34381833 14.25591502 289.56604666 14.30175781 297.78833008 C14.34170961 304.9574507 14.36745268 312.12645983 14.37635398 319.29568869 C14.38155469 323.08946227 14.3937205 326.88291698 14.42292023 330.67658806 C14.45022164 334.25285429 14.45841564 337.82867256 14.45243073 341.40503311 C14.45404299 343.33208706 14.4754884 345.25909306 14.49768066 347.1860199 C14.44929386 357.43870458 11.99198098 364.65750006 5 372.20703125 C-3.63051108 379.94414958 -12.96600235 380.6913663 -24.06005859 380.17041016 C-32.68058484 379.41315779 -39.40545957 374.31383849 -45 368 C-48.40866881 362.71750496 -50.12598219 357.6985354 -50.12025452 351.43818665 C-50.12231651 349.702892 -50.12231651 349.702892 -50.12442017 347.93254089 C-50.12082489 346.66227554 -50.11722961 345.39201019 -50.11352539 344.08325195 C-50.11324334 342.73307294 -50.1134016 341.38289377 -50.1139679 340.03271484 C-50.11425517 336.36564067 -50.10836971 332.69859911 -50.10139394 329.03153253 C-50.09514878 325.19983094 -50.09455568 321.36812862 -50.09336853 317.53642273 C-50.09025865 310.27978372 -50.08204987 303.02315974 -50.07201904 295.76652735 C-50.06084727 287.50543203 -50.05534477 279.244336 -50.05032361 270.983235 C-50.03986698 253.98881463 -50.02227416 236.9944089 -50 220 C-50.69776519 220.00368717 -51.39553038 220.00737434 -52.11443996 220.01117325 C-69.11673173 220.09962903 -86.11896481 220.16576045 -103.12143612 220.20724869 C-111.34381833 220.22784697 -119.56604666 220.25591502 -127.78833008 220.30175781 C-134.9574507 220.34170961 -142.12645983 220.36745268 -149.29568869 220.37635398 C-153.08946227 220.38155469 -156.88291698 220.3937205 -160.67658806 220.42292023 C-164.25285429 220.45022164 -167.82867256 220.45841564 -171.40503311 220.45243073 C-173.33208706 220.45404299 -175.25909306 220.4754884 -177.1860199 220.49768066 C-187.43870458 220.44929386 -194.65750006 217.99198098 -202.20703125 211 C-209.94414958 202.36948892 -210.6913663 193.03399765 -210.17041016 181.93994141 C-209.41315779 173.31941516 -204.31383849 166.59454043 -198 161 C-192.71750496 157.59133119 -187.6985354 155.87401781 -181.43818665 155.87974548 C-180.28132355 155.87837082 -179.12446045 155.87699615 -177.93254089 155.87557983 C-176.02714287 155.88097275 -176.02714287 155.88097275 -174.08325195 155.88647461 C-172.73307294 155.88675666 -171.38289377 155.8865984 -170.03271484 155.8860321 C-166.36564067 155.88574483 -162.69859911 155.89163029 -159.03153253 155.89860606 C-155.19983094 155.90485122 -151.36812862 155.90544432 -147.53642273 155.90663147 C-140.27978372 155.90974135 -133.02315974 155.91795013 -125.76652735 155.92798096 C-117.50543203 155.93915273 -109.244336 155.94465523 -100.983235 155.94967639 C-83.98881463 155.96013302 -66.9944089 155.97772584 -50 156 C-50.00368717 155.30223481 -50.00737434 154.60446962 -50.01117325 153.88556004 C-50.09962903 136.88326827 -50.16576045 119.88103519 -50.20724869 102.87856388 C-50.22784697 94.65618167 -50.25591502 86.43395334 -50.30175781 78.21166992 C-50.34170961 71.0425493 -50.36745268 63.87354017 -50.37635398 56.70431131 C-50.38155469 52.91053773 -50.3937205 49.11708302 -50.42292023 45.32341194 C-50.45022164 41.74714571 -50.45841564 38.17132744 -50.45243073 34.59496689 C-50.45404299 32.66791294 -50.4754884 30.74090694 -50.49768066 28.8139801 C-50.44929386 18.56129542 -47.99198098 11.34249994 -41 3.79296875 C-30.29910292 -5.80021828 -12.3235302 -7.62987261 0 0 Z " fill="#80C4F5" transform="translate(274,68)"/>
</svg>
