<svg width="5272" height="3324" viewBox="0 0 5272 3324" fill="none" xmlns="http://www.w3.org/2000/svg">
<path d="M1057.19 532.993C957.81 656.639 900.032 945.067 1057.19 1178.95C1146.86 1311.15 1239.38 1360.38 1274.43 1368.46" stroke="white" stroke-width="23.1112" stroke-linecap="round"/>
<path d="M1116.12 459.037C1147.71 426.296 1239.07 351.108 1351.86 312.281" stroke="white" stroke-width="23.1112" stroke-linecap="round"/>
<rect x="4073.21" y="954.773" width="151.621" height="89.7668" rx="21.1853" fill="#CC4141"/>
<path d="M4108.22 1009.17H4119.1V1017.71H4096.93V981.709H4108.22V1009.17ZM4133.94 981.709V1017.71H4122.65V981.709H4133.94ZM4175.29 981.709L4163.19 1017.71H4148.6L4136.5 981.709H4148.5L4155.92 1006.47L4163.29 981.709H4175.29ZM4189.11 990.708V995.132H4200.29V1003.62H4189.11V1008.71H4201.82V1017.71H4177.82V981.709H4201.82V990.708H4189.11Z" fill="white"/>
<path d="M2727.62 2734.78L3083.05 2103.32C3100.73 2071.92 3145.94 2071.92 3163.61 2103.32L3519.05 2734.78C3536.39 2765.59 3514.12 2803.67 3478.77 2803.67H2767.9C2732.54 2803.67 2710.28 2765.59 2727.62 2734.78Z" fill="black"/>
<rect x="1175.05" y="159.747" width="3963.58" height="2204.81" rx="46.2225" fill="#0088EB"/>
<path d="M2448.58 259.125L2479.5 325.37L2545.74 356.287L2479.5 387.204L2448.58 453.449L2417.66 387.204L2351.42 356.287L2417.66 325.37L2448.58 259.125Z" fill="#0081DE"/>
<path d="M2433.91 513.349L2463.86 534.305L2500.27 531.131L2479.32 561.079L2482.49 597.494L2452.54 576.538L2416.13 579.712L2437.08 549.763L2433.91 513.349Z" fill="#0081DE"/>
<path d="M1440.83 2126.51V1259.84C1440.83 1234.31 1461.53 1213.62 1487.06 1213.62H3271.24C3296.77 1213.62 3317.47 1234.31 3317.47 1259.84V2126.51C3317.47 2152.04 3296.77 2172.74 3271.24 2172.74H1487.06C1461.53 2172.74 1440.83 2152.04 1440.83 2126.51Z" fill="#2F9DED" fill-opacity="0.5"/>
<path d="M2772.04 1924.37V418.342C2772.04 387.847 2796.76 363.126 2827.26 363.126H4957.24C4987.73 363.126 5012.45 387.847 5012.45 418.342V1924.37C5012.45 1954.87 4987.73 1979.59 4957.24 1979.59H2827.26C2796.76 1979.59 2772.04 1954.87 2772.04 1924.37Z" fill="#2F9DED" fill-opacity="0.8"/>
<path d="M2772.04 419.723C2772.04 389.227 2796.76 364.506 2827.26 364.506H4958.62C4989.11 364.506 5013.83 389.228 5013.83 419.723V505.308H2772.04V419.723Z" fill="black"/>
<path d="M4707.38 428.005H4657.69" stroke="white" stroke-width="8.28248" stroke-linecap="round"/>
<path d="M4784.68 421.379V408.68C4784.68 407.155 4785.92 405.919 4787.44 405.919H4831.62C4833.14 405.919 4834.38 407.155 4834.38 408.68V421.379M4784.68 421.379V447.331C4784.68 448.856 4785.92 450.092 4787.44 450.092H4831.62C4833.14 450.092 4834.38 448.856 4834.38 447.331V421.379M4784.68 421.379H4834.38" stroke="white" stroke-width="8.28248" stroke-linecap="round"/>
<path d="M4911.68 405.919L4933.77 428.005L4955.85 450.092M4955.85 405.919L4911.68 450.092" stroke="white" stroke-width="8.28248" stroke-linecap="round"/>
<rect x="2926.65" y="668.197" width="1380.41" height="927.638" rx="55.2165" fill="white"/>
<circle cx="4445.1" cy="734.457" r="35.8907" fill="white"/>
<circle cx="4445.1" cy="902.867" r="35.8907" fill="white"/>
<path d="M4512.74 706.849H4685.29M4512.74 735.837H4775.02M4512.74 760.685H4852.32M4806.77 735.837H4890.98M4890.98 760.685H4871.65M4512.74 784.152H4602.47M4533.45 886.302H4775.02M4533.45 912.53H4838.52M4871.65 912.53H4914.44M4533.45 937.377H4591.43M4617.65 937.377H4890.98" stroke="white" stroke-width="8.28248" stroke-linecap="round"/>
<circle cx="4445.1" cy="1071.28" r="35.8907" fill="white"/>
<rect x="3686.28" y="716.728" width="538.38" height="320.215" rx="75.1902" fill="#CC4141"/>
<path d="M3810.56 910.019H3849.17V940.335H3770.5V812.572H3810.56V910.019ZM3901.84 812.572V940.335H3861.78V812.572H3901.84ZM4048.6 812.572L4005.65 940.335H3953.86L3910.91 812.572H3953.5L3979.85 900.455L4006.01 812.572H4048.6ZM4097.63 844.513V860.213H4137.33V890.349H4097.63V908.395H4142.74V940.335H4057.57V812.572H4142.74V844.513H4097.63Z" fill="white"/>
<path d="M2561.73 479.888L2624.73 516.262M2687.74 552.637L2624.73 516.262M2624.73 516.262L2661.11 453.26M2624.73 516.262L2588.36 579.265" stroke="white" stroke-opacity="0.5" stroke-width="34.6669" stroke-linecap="round"/>
<circle cx="1527.5" cy="854.24" r="569.692" fill="black"/>
<circle cx="1392.3" cy="762.95" r="16.1779" fill="white"/>
<circle cx="1487.06" cy="762.95" r="16.1779" fill="white"/>
<path d="M1254.3 849.559C1339.46 1019.7 1700.01 985.24 1815.19 764.359M1815.19 764.359L1767.67 729.432M1815.19 764.359L1853.51 797.858" stroke="white" stroke-width="23.1112" stroke-linecap="round"/>
<rect x="135.05" y="1865.36" width="2334.24" height="1298.85" rx="46.2225" fill="#0088EB"/>
<path d="M1361.53 2240.07L783.632 2369.25C768.764 2372.57 757.296 2384.42 754.457 2399.39L702.924 2671.11C699.132 2691.1 711.691 2710.55 731.473 2715.32L1360.9 2867.2C1384.91 2872.99 1408.02 2854.79 1408.02 2830.09V2277.32C1408.02 2252.88 1385.38 2234.74 1361.53 2240.07Z" fill="#BFDCFF"/>
<path d="M781.416 2138.07C657.173 2246.85 559.553 2300.29 430.873 2300.29C430.873 2697.26 587.37 2813.68 781.416 2935.82C969.069 2840.4 1140.83 2708.71 1140.83 2300.29C1021.03 2300.29 905.659 2244.95 781.416 2138.07Z" fill="#0081DE" stroke="#0081DE" stroke-width="76.3398" stroke-linejoin="round"/>
<mask id="mask0_248_62" style="mask-type:alpha" maskUnits="userSpaceOnUse" x="702" y="2239" width="707" height="630">
<path d="M1361.53 2240.07L783.632 2369.25C768.764 2372.57 757.296 2384.42 754.457 2399.39L702.924 2671.11C699.132 2691.1 711.691 2710.55 731.473 2715.32L1360.9 2867.2C1384.91 2872.99 1408.02 2854.79 1408.02 2830.09V2277.32C1408.02 2252.88 1385.38 2234.74 1361.53 2240.07Z" fill="#7AB7FF"/>
</mask>
<g mask="url(#mask0_248_62)">
<path d="M781.416 2138.07C657.173 2246.85 559.553 2300.29 430.873 2300.29C430.873 2697.26 587.37 2813.68 781.416 2935.82C969.069 2840.4 1140.83 2708.71 1140.83 2300.29C1021.03 2300.29 905.659 2244.94 781.416 2138.07Z" fill="#76B5FF" stroke="#76B5FF" stroke-width="76.3398" stroke-linejoin="round"/>
</g>
<path fill-rule="evenodd" clip-rule="evenodd" d="M848.276 2552.8C847.645 2549.95 848.722 2547 850.932 2545.07C871.862 2526.88 885.095 2500.06 885.095 2470.15C885.095 2415.34 840.663 2370.91 785.853 2370.91C731.043 2370.91 686.611 2415.34 686.611 2470.15C686.611 2500.97 700.66 2528.51 722.702 2546.71C725.017 2548.62 726.166 2551.64 725.519 2554.57L693.621 2699.05C692.569 2703.81 696.196 2708.33 701.075 2708.33H873.109C877.989 2708.33 881.616 2703.81 880.564 2699.05L848.276 2552.8Z" fill="white"/>
<path d="M2378 1864.2H228.65C196.679 1862.66 132.738 1879.69 132.738 1960.11V2637.27V3052.12C132.738 3146.88 158.161 3165.36 245.983 3165.36H621.541H2378C2423.06 3165.36 2464.66 3170.22 2464.66 3078.7V2988.56V2822.16V1950.87C2464.66 1884.31 2406.88 1865.36 2378 1864.2Z" stroke="black" stroke-width="23.1112" stroke-linecap="round"/>
<rect x="1826.79" y="1978.6" width="538.38" height="320.215" rx="75.1902" fill="#CC4141"/>
<path d="M1951.07 2171.89H1989.68V2202.21H1911.01V2074.45H1951.07V2171.89ZM2042.35 2074.45V2202.21H2002.29V2074.45H2042.35ZM2189.11 2074.45L2146.16 2202.21H2094.37L2051.42 2074.45H2094.01L2120.36 2162.33L2146.52 2074.45H2189.11ZM2238.14 2106.39V2122.09H2277.84V2152.22H2238.14V2170.27H2283.25V2202.21H2198.08V2074.45H2283.25V2106.39H2238.14Z" fill="white"/>
<circle cx="1177.37" cy="1943.94" r="34.6669" fill="black"/>
<path d="M1249.01 1943.94H1461.63" stroke="black" stroke-width="23.1112" stroke-linecap="round"/>
</svg>
