<svg width="37" height="37" viewBox="0 0 37 37" fill="none" xmlns="http://www.w3.org/2000/svg">
<path d="M34.75 18.5C34.75 27.4746 27.4746 34.75 18.5 34.75M34.75 18.5C34.75 9.52537 27.4746 2.25 18.5 2.25M34.75 18.5H2.25M18.5 34.75C9.52537 34.75 2.25 27.4746 2.25 18.5M18.5 34.75C22.5646 30.3002 24.8745 24.5254 25 18.5C24.8745 12.4746 22.5646 6.69982 18.5 2.25M18.5 34.75C14.4354 30.3002 12.1255 24.5254 12 18.5C12.1255 12.4746 14.4354 6.69982 18.5 2.25M2.25 18.5C2.25 9.52537 9.52537 2.25 18.5 2.25" stroke="black" stroke-width="4" stroke-linecap="round" stroke-linejoin="round"/>
</svg>
