<svg version="1.1" id="Layer_1" xmlns="http://www.w3.org/2000/svg" xmlns:xlink="http://www.w3.org/1999/xlink" x="0px" y="0px"
	 width="100%" viewBox="0 0 1024 1024" enable-background="new 0 0 1024 1024" xml:space="preserve">
<path fill="#0081F5" opacity="1.000000" stroke="none" 
	d="
M534.812256,99.217049 
	C540.293457,108.507660 545.687805,117.450562 550.736145,126.584671 
	C569.352478,160.267487 588.100159,193.882294 606.224670,227.829071 
	C610.706787,236.223923 617.282776,238.681961 625.705811,240.007919 
	C655.843750,244.752274 685.930176,249.824677 716.032349,254.795532 
	C728.461609,256.848022 740.921570,258.746613 753.294006,261.101868 
	C765.190918,263.366608 774.066467,269.816833 778.264526,281.541870 
	C782.344971,292.938629 779.916870,303.213196 771.688171,311.918518 
	C741.012695,344.370544 710.348877,376.835663 679.379211,409.005676 
	C674.030762,414.561401 671.770569,419.983276 672.950806,427.674347 
	C676.801697,452.768951 680.201294,477.933258 683.716858,503.078796 
	C686.497437,522.967041 689.503967,542.830566 691.844849,562.771484 
	C694.522461,585.580261 670.261597,602.855530 648.681396,593.129211 
	C625.876038,582.850708 603.567688,571.469727 581.036926,560.581421 
	C560.739929,550.772583 540.396057,541.059509 520.161377,531.124023 
	C514.781982,528.482605 509.920197,528.535461 504.538361,531.193176 
	C463.668030,551.375854 422.731018,571.423584 381.795715,591.474426 
	C366.270416,599.079041 352.167389,596.817139 341.479736,584.982788 
	C333.455139,576.097229 333.468384,565.675842 335.197235,554.537537 
	C338.481750,533.377380 341.086517,512.112000 344.007782,490.895020 
	C346.564880,472.323090 349.174011,453.758270 351.747223,435.188538 
	C352.180267,432.063690 352.550140,428.930054 352.944672,425.799896 
	C353.675171,420.003784 352.041260,415.341522 347.820099,410.935699 
	C317.503235,379.292725 287.405731,347.439575 257.238739,315.653015 
	C244.776047,302.521240 242.502808,288.483673 250.652039,275.474182 
	C256.089081,266.794403 264.325226,262.734253 274.046814,261.083557 
	C317.204132,253.755661 360.331329,246.238602 403.553680,239.316025 
	C411.205597,238.090485 415.646820,234.671570 419.196320,228.172302 
	C441.536865,187.266129 464.027191,146.440994 486.649933,105.690071 
	C496.670471,87.639786 519.429138,84.588989 534.812256,99.217049 
M507.831055,306.685211 
	C496.354309,300.046539 484.962189,293.255707 473.377655,286.810791 
	C461.113251,279.987701 450.026672,286.694611 450.022064,300.741821 
	C450.007751,344.370026 450.006561,387.998260 450.013794,431.626465 
	C450.016083,445.514801 461.090790,452.025330 473.087036,445.182526 
	C510.815582,423.661591 548.538147,402.130096 586.253235,380.585571 
	C599.601318,372.960571 599.573303,360.137238 586.239197,352.368256 
	C560.315369,337.263977 534.400208,322.144775 507.831055,306.685211 
z"/>
<path fill="#030404" opacity="1.000000" stroke="none" 
	d="
M331.367798,589.669312 
	C353.436676,604.630005 375.236938,619.353638 397.035126,634.080383 
	C432.515533,658.050842 454.680573,690.944641 462.682098,733.051208 
	C466.245697,751.803955 466.165558,770.755127 463.229248,789.624634 
	C461.173340,802.836182 458.788696,815.996643 456.453644,829.752747 
	C457.911224,830.091797 459.901703,830.621582 461.918976,831.013489 
	C478.983734,834.328674 488.878357,849.165649 485.845001,866.321289 
	C482.390106,885.860840 479.152527,905.441528 476.069550,925.043518 
	C473.378357,942.154419 457.741425,952.702087 440.721436,948.716614 
	C384.076324,935.452454 327.416199,922.252441 270.765839,909.010620 
	C254.544174,905.218872 245.020081,890.221863 249.142410,874.476562 
	C254.100189,855.540344 259.842255,836.799072 264.390594,817.769226 
	C268.308990,801.375000 283.053406,791.254272 301.071320,795.984253 
	C301.982056,796.223328 302.906067,796.411743 304.380157,796.752197 
	C305.393463,782.521362 305.584869,768.726318 294.732758,757.638489 
	C278.194305,740.740723 261.685760,723.808838 244.888336,707.170288 
	C219.535843,682.057678 196.678604,655.196899 182.144867,622.101562 
	C173.341125,602.054321 167.603271,581.109436 164.111053,559.614563 
	C158.697327,526.292786 154.001831,492.854828 148.902634,459.481293 
	C146.778778,445.580963 144.171204,431.751099 142.258072,417.823975 
	C141.565033,412.778870 141.401718,407.357666 142.474548,402.429840 
	C145.771103,387.287506 159.286972,380.897095 174.415955,386.700745 
	C182.697281,389.877533 189.324814,395.163055 194.569473,402.262024 
	C205.997314,389.687103 227.519379,391.875793 237.667038,407.996033 
	C243.479538,417.229584 247.286301,427.727173 251.968948,437.668488 
	C252.445969,438.681213 252.736069,439.781982 253.112091,440.839630 
	C267.096466,435.894287 278.797241,439.601990 285.516388,453.012054 
	C290.537506,463.033142 294.029816,474.011780 296.832611,484.916229 
	C304.580872,515.061340 311.555084,545.404846 319.027679,575.622375 
	C319.651550,578.145142 321.403137,580.600830 323.199005,582.569336 
	C325.534363,585.129089 328.438751,587.169617 331.367798,589.669312 
M280.926422,809.925354 
	C280.926422,809.925354 280.910248,809.810852 280.394012,810.006958 
	C280.200073,810.310120 280.006134,810.613281 279.928253,810.929504 
	C279.928253,810.929504 279.912415,810.813843 279.400543,811.014709 
	C279.212311,811.320862 279.024048,811.627014 278.940063,811.942261 
	C278.940063,811.942261 278.925232,811.838745 278.418243,812.040955 
	C278.265503,812.356689 278.112762,812.672424 278.006378,812.991882 
	C278.006378,812.991882 277.977356,812.955566 277.412872,813.396851 
	C276.627655,815.200134 275.612579,816.939758 275.092712,818.816528 
	C269.826050,837.829956 264.535248,856.837952 259.495148,875.911987 
	C257.964935,881.703064 258.707642,887.368225 262.965851,892.030701 
	C262.965851,892.030701 262.869781,892.084534 263.062347,892.692444 
	C263.978943,893.540771 264.895508,894.389099 265.947418,895.101440 
	C265.947418,895.101440 265.778564,895.192383 266.092896,895.759338 
	C267.033997,896.242188 267.975067,896.725037 268.930176,897.108948 
	C268.930176,897.108948 268.832886,897.131531 269.281769,897.730408 
	C270.873779,898.172546 272.451843,898.674805 274.059814,899.048096 
	C326.721222,911.275452 379.385529,923.490479 432.826752,935.958557 
	C433.481903,936.064148 434.146484,936.129700 434.790619,936.281921 
	C438.493530,937.157104 442.155212,938.269897 445.898682,938.897766 
	C454.409912,940.325073 463.738464,934.085815 465.424377,924.926331 
	C468.599304,907.677185 471.078583,890.300049 474.010956,872.188232 
	C473.981659,871.129089 473.952362,870.069885 474.018341,868.579346 
	C474.018341,868.579346 474.035858,868.137878 474.714722,867.700562 
	C474.822754,864.422180 474.930817,861.143738 475.015747,857.421509 
	C475.015747,857.421509 474.920166,856.987488 475.156433,856.252930 
	C474.489594,854.435730 473.822723,852.618469 473.128296,850.926941 
	C473.128296,850.926941 473.256256,850.913208 473.130493,850.309204 
	C472.772644,849.837830 472.414795,849.366455 472.029602,848.968079 
	C472.029602,848.968079 472.107635,848.967407 471.962952,848.428528 
	C471.666290,848.221924 471.369629,848.015320 471.061981,847.940613 
	C471.061981,847.940613 471.193695,847.927185 471.004700,847.392944 
	C470.699585,847.188354 470.394470,846.983765 470.067230,846.928650 
	C470.067230,846.928650 470.218170,846.922729 470.024414,846.364502 
	C469.711060,846.136475 469.397705,845.908386 468.944824,845.271423 
	C468.739380,845.036072 468.480865,844.930115 467.845612,844.410156 
	C467.270355,844.166809 466.695099,843.923462 466.100006,843.857117 
	C466.100006,843.857117 466.275604,843.827393 466.033325,843.334412 
	C465.688904,843.239319 465.344482,843.144226 464.817596,842.830994 
	C464.817596,842.830994 464.542877,842.904602 463.964508,842.309448 
	C461.298004,841.876892 458.631500,841.444336 455.359863,840.558777 
	C422.543335,833.386841 389.735779,826.173523 356.906158,819.062012 
	C342.356781,815.910461 327.762787,812.964844 312.878326,809.578247 
	C312.626068,809.350403 312.335388,809.279114 311.523315,809.119385 
	C311.343475,809.135498 311.163666,809.151611 310.209229,808.973145 
	C309.572296,808.823486 308.942902,808.606506 308.297272,808.534363 
	C301.149963,807.735840 294.316162,803.446838 286.698700,806.421448 
	C286.698700,806.421448 286.493805,806.432129 285.862518,806.611328 
	C284.544312,807.388306 283.226105,808.165222 281.975983,808.981567 
	C281.975983,808.981567 281.967255,808.903381 281.434753,809.041870 
	C281.227020,809.331787 281.019287,809.621704 280.926422,809.925354 
M305.055420,566.630127 
	C305.290039,566.657837 305.524689,566.685486 305.759308,566.713135 
	C305.735626,566.316833 305.711975,565.920471 305.331421,564.815613 
	C298.976074,538.246155 292.667023,511.665466 286.241394,485.113007 
	C283.844879,475.209930 281.402527,465.316681 275.538513,456.666351 
	C271.598816,450.854706 264.558929,447.207947 256.773651,451.497650 
	C261.318878,476.345001 265.789917,500.985229 270.379181,525.603455 
	C270.905731,528.427856 271.309357,531.868835 273.101562,533.765930 
	C283.481537,544.753174 294.260864,555.363220 305.055420,566.630127 
M452.032867,794.558044 
	C455.113983,776.429382 456.001404,758.329590 453.157837,740.002014 
	C449.458344,716.157471 440.699432,694.690491 426.149078,675.388428 
	C412.657410,657.490784 394.766907,644.973511 376.269745,633.124695 
	C352.109650,617.648376 327.520416,602.728210 306.650879,582.779541 
	C291.115875,567.930176 276.193298,552.442139 260.823364,537.417114 
	C253.942444,530.690613 246.514389,524.571228 237.134872,521.472717 
	C227.966003,518.443848 221.011932,520.841492 216.767578,528.510681 
	C212.920258,535.462524 212.435928,542.889709 213.433609,550.632202 
	C214.933487,562.271912 220.768555,571.913757 228.108215,580.414490 
	C248.545609,604.084961 269.444611,627.357727 290.238556,650.718872 
	C295.330994,656.440125 300.674805,661.940857 305.990051,667.459167 
	C308.594452,670.163025 309.113556,673.101257 306.592834,675.822266 
	C303.878296,678.752502 301.039185,677.762878 298.528076,675.079407 
	C295.682159,672.038147 292.723755,669.102356 289.866577,666.071411 
	C265.665375,640.397766 241.080612,615.082214 219.462006,587.085205 
	C208.031723,572.282532 200.458801,556.473328 203.006180,537.191040 
	C204.238037,527.866455 207.421310,519.630005 215.225922,513.610474 
	C216.398911,512.705688 217.029633,509.952515 216.649521,508.354523 
	C212.230530,489.777679 207.667130,471.233429 202.940002,452.732147 
	C199.357224,438.709656 196.035812,424.570068 188.071854,412.123718 
	C183.472107,404.935120 177.639282,399.287384 169.368774,396.599213 
	C159.858521,393.508087 153.583130,397.515015 152.778763,407.443451 
	C152.458969,411.390656 152.604538,415.467224 153.206802,419.382050 
	C156.324982,439.650818 159.711746,459.878052 162.906204,480.135345 
	C167.622986,510.046082 171.748428,540.060303 177.047409,569.866577 
	C184.572662,612.195496 203.954407,648.818542 233.514648,679.856873 
	C255.570816,703.015869 278.315735,725.519287 300.775604,748.293274 
	C307.162750,754.769775 312.497650,761.731445 313.288696,771.295593 
	C314.037018,780.343750 315.059570,789.369263 316.062378,799.415344 
	C358.404388,808.693726 401.801636,818.203369 445.747375,827.833252 
	C447.887970,816.753296 449.946960,806.095703 452.032867,794.558044 
M246.011078,456.544525 
	C245.666351,455.105621 245.371262,453.652679 244.969147,452.230011 
	C241.300461,439.250214 237.659134,426.260315 229.877090,414.940613 
	C226.225510,409.629059 221.372284,406.232758 214.918335,405.262817 
	C205.519669,403.850342 200.861053,409.343292 203.861404,418.288727 
	C204.954865,421.548859 206.117920,424.797058 206.986633,428.119354 
	C213.682144,453.725494 220.377457,479.332184 226.872879,504.989349 
	C227.587723,507.813049 228.417694,508.902100 231.483124,509.430603 
	C236.782593,510.344330 242.070129,511.869446 247.055496,513.894287 
	C251.173782,515.566956 254.848358,518.332031 259.129547,520.854675 
	C258.356659,516.609497 257.759247,512.865112 256.985504,509.157562 
	C253.382095,491.891022 249.729904,474.634613 246.011078,456.544525 
z"/>
<path fill="#030304" opacity="1.000000" stroke="none" 
	d="
M833.171326,449.004944 
	C829.515625,475.760406 825.828918,502.511780 822.270874,529.280212 
	C822.021179,531.158630 822.711548,533.165161 822.984253,535.109436 
	C824.344421,544.806641 822.833923,554.139954 820.370544,563.573242 
	C817.960632,572.801453 816.520508,582.306030 815.038086,591.749512 
	C807.225891,641.515625 789.981689,687.303833 758.396912,727.111023 
	C749.619446,738.173523 740.840393,749.235229 732.136047,760.355164 
	C723.856079,770.932983 717.186829,782.047485 721.461304,795.936768 
	C728.091858,795.936768 735.213013,794.929871 741.916138,796.174438 
	C751.797852,798.009155 758.074585,805.084900 760.755127,814.607544 
	C766.464844,834.891235 771.777283,855.287781 777.142822,875.666931 
	C780.698120,889.170227 772.008057,904.600525 758.471069,907.932556 
	C731.740540,914.512085 704.915833,920.711792 678.107666,926.972595 
	C647.442932,934.134094 616.720215,941.049866 586.088013,948.346619 
	C567.720337,952.721863 551.401184,941.275635 548.935974,922.527771 
	C546.477478,903.831116 543.260925,885.233215 540.315735,866.601685 
	C537.641418,849.684326 545.085327,833.431702 567.404968,830.005249 
	C568.200256,829.883118 568.988403,829.714233 569.469788,829.624756 
	C567.081604,815.264709 564.164246,801.190552 562.481689,786.970276 
	C556.913757,739.911072 566.730713,697.196899 598.657227,660.685547 
	C614.232544,642.873474 634.230652,631.056091 653.421448,618.018250 
	C669.985229,606.765076 686.380127,595.250793 702.547485,583.438354 
	C705.453308,581.315308 707.957214,577.452026 708.842529,573.937744 
	C717.776245,538.474426 726.046021,502.841614 735.235107,467.446655 
	C737.120056,460.186249 741.172974,453.042755 745.781921,447.039612 
	C752.748657,437.965637 762.618469,436.826477 772.843750,440.526031 
	C776.910095,431.715210 780.607971,422.638550 785.205383,414.042999 
	C789.729736,405.583862 795.952576,398.603119 805.735779,395.647736 
	C818.497375,391.792511 831.259216,396.984253 834.418823,407.968964 
	C835.545776,411.886963 835.484863,416.146606 835.922363,421.086609 
	C835.670410,424.279388 835.462219,426.635895 835.148682,429.421783 
	C834.730835,433.883789 834.418274,437.916382 833.982300,442.331055 
	C833.629700,444.810394 833.400513,446.907684 833.171326,449.004944 
M563.652161,931.246216 
	C563.652161,931.246216 563.585266,931.354431 563.739685,931.827271 
	C563.900818,932.141541 564.152710,932.341370 564.573181,932.460266 
	C564.573181,932.460266 564.554382,932.543091 564.728516,932.946411 
	C564.897766,933.203125 565.131409,933.369446 565.527954,933.491821 
	C565.527954,933.491821 565.576782,933.589233 565.804749,933.999756 
	C566.021606,934.249146 566.293945,934.394836 566.891113,934.442322 
	C566.891113,934.442322 566.624634,934.482056 567.037964,935.012451 
	C571.378113,938.129456 575.952515,939.698120 581.465271,938.418335 
	C611.410706,931.466980 641.403320,924.719238 671.352173,917.782532 
	C687.925781,913.943787 704.445435,909.872559 721.786926,905.989441 
	C731.925720,903.630371 742.061157,901.256897 752.204163,898.916016 
	C763.210205,896.375916 769.484558,887.958557 766.782837,877.178040 
	C761.675842,856.799866 755.948059,836.565552 749.962036,816.424927 
	C747.444702,807.955200 738.895447,803.842407 730.070435,805.659241 
	C723.748840,806.960754 717.442322,808.336182 711.130798,809.686340 
	C676.321106,817.132812 641.503174,824.540955 606.706909,832.049805 
	C592.469727,835.122070 578.207031,838.126282 564.093689,841.705017 
	C554.362366,844.172546 548.674072,853.533142 550.171082,862.969177 
	C552.820496,879.668945 555.276001,896.401855 558.155273,913.061646 
	C559.151672,918.827026 561.166260,924.416504 562.902649,930.623474 
	C563.168457,930.870300 563.434265,931.117188 563.652161,931.246216 
M802.986877,600.375977 
	C803.367676,597.652588 803.748413,594.929199 804.061401,592.690552 
	C786.064453,612.518921 768.177734,632.412781 750.060486,652.094360 
	C742.843567,659.934448 735.121338,667.309631 727.619568,674.887085 
	C725.171936,677.359436 722.557800,678.084045 719.822632,675.352173 
	C717.148560,672.681335 717.719727,670.025757 720.057190,667.477966 
	C720.844055,666.620239 721.700928,665.827209 722.514221,664.993225 
	C748.313904,638.537170 774.283569,612.236145 796.755188,582.772827 
	C806.240356,570.336609 813.936523,557.352112 813.084534,540.771606 
	C812.377197,527.007996 803.783447,518.570007 791.750732,521.168396 
	C787.976440,521.983459 783.867615,523.360413 780.973267,525.760193 
	C770.647339,534.321777 760.191528,542.864258 750.864502,552.463013 
	C734.366699,569.441284 717.805786,586.360535 698.544434,600.154053 
	C678.783081,614.305542 658.426025,627.641418 638.103882,640.990479 
	C592.883850,670.694275 570.839111,712.679138 571.388306,766.541809 
	C571.492920,776.800049 572.748474,787.103088 574.231689,797.274780 
	C575.692505,807.292480 578.116882,817.169678 580.135803,827.194275 
	C623.863098,817.732361 666.867310,808.426941 710.003113,799.093018 
	C710.003113,796.512878 710.205444,794.333435 709.969849,792.202271 
	C708.577820,779.608521 712.812988,768.708008 720.186462,758.887878 
	C727.659302,748.935425 735.252258,739.060547 743.125793,729.424011 
	C761.030762,707.510071 776.801025,684.175354 786.449036,657.499329 
	C793.082886,639.157166 797.494263,620.011292 802.986877,600.375977 
M778.790710,514.205017 
	C790.623474,508.671722 802.349182,506.689056 813.748413,515.705261 
	C814.871338,506.907654 815.938110,498.550293 817.004944,490.192963 
	C818.891052,475.416656 820.942322,460.658905 822.604675,445.857452 
	C823.695190,436.148010 824.611816,426.386292 824.885132,416.627777 
	C825.118774,408.286896 819.757812,404.144684 811.517395,405.872681 
	C808.430908,406.519867 805.268921,407.982910 802.734192,409.870178 
	C794.246582,416.189667 789.892639,425.512054 787.157410,435.197632 
	C781.622986,454.795074 776.832397,474.609528 772.073303,494.415771 
	C769.937622,503.303772 768.615479,512.387207 766.885315,521.588501 
	C770.892761,519.116882 774.531921,516.872437 778.790710,514.205017 
M731.390015,556.888184 
	C738.207092,549.811584 745.106445,542.811035 751.777100,535.599060 
	C753.249268,534.007446 754.449341,531.771729 754.862244,529.654602 
	C758.274170,512.156677 761.396790,494.602478 764.765381,477.095795 
	C766.405518,468.571564 768.383545,460.112305 770.194336,451.689911 
	C761.017883,448.157959 755.852600,449.660400 750.950867,457.686859 
	C748.574768,461.577667 746.303528,465.760712 745.131470,470.119751 
	C739.536377,490.928040 734.229065,511.815857 729.036133,532.729248 
	C726.312317,543.698914 724.034424,554.779236 721.326233,566.827942 
	C725.049072,563.153992 727.969116,560.272339 731.390015,556.888184 
z"/>
<path fill="#FEFFFF" opacity="1.000000" stroke="none" 
	d="
M508.156250,306.858490 
	C534.400208,322.144775 560.315369,337.263977 586.239197,352.368256 
	C599.573303,360.137238 599.601318,372.960571 586.253235,380.585571 
	C548.538147,402.130096 510.815582,423.661591 473.087036,445.182526 
	C461.090790,452.025330 450.016083,445.514801 450.013794,431.626465 
	C450.006561,387.998260 450.007751,344.370026 450.022064,300.741821 
	C450.026672,286.694611 461.113251,279.987701 473.377655,286.810791 
	C484.962189,293.255707 496.354309,300.046539 508.156250,306.858490 
z"/>
<path fill="#F9F9F9" opacity="1.000000" stroke="none" 
	d="
M452.019409,794.998108 
	C449.946960,806.095703 447.887970,816.753296 445.747375,827.833252 
	C401.801636,818.203369 358.404388,808.693726 316.062378,799.415344 
	C315.059570,789.369263 314.037018,780.343750 313.288696,771.295593 
	C312.497650,761.731445 307.162750,754.769775 300.775604,748.293274 
	C278.315735,725.519287 255.570816,703.015869 233.514648,679.856873 
	C203.954407,648.818542 184.572662,612.195496 177.047409,569.866577 
	C171.748428,540.060303 167.622986,510.046082 162.906204,480.135345 
	C159.711746,459.878052 156.324982,439.650818 153.206802,419.382050 
	C152.604538,415.467224 152.458969,411.390656 152.778763,407.443451 
	C153.583130,397.515015 159.858521,393.508087 169.368774,396.599213 
	C177.639282,399.287384 183.472107,404.935120 188.071854,412.123718 
	C196.035812,424.570068 199.357224,438.709656 202.940002,452.732147 
	C207.667130,471.233429 212.230530,489.777679 216.649521,508.354523 
	C217.029633,509.952515 216.398911,512.705688 215.225922,513.610474 
	C207.421310,519.630005 204.238037,527.866455 203.006180,537.191040 
	C200.458801,556.473328 208.031723,572.282532 219.462006,587.085205 
	C241.080612,615.082214 265.665375,640.397766 289.866577,666.071411 
	C292.723755,669.102356 295.682159,672.038147 298.528076,675.079407 
	C301.039185,677.762878 303.878296,678.752502 306.592834,675.822266 
	C309.113556,673.101257 308.594452,670.163025 305.990051,667.459167 
	C300.674805,661.940857 295.330994,656.440125 290.238556,650.718872 
	C269.444611,627.357727 248.545609,604.084961 228.108215,580.414490 
	C220.768555,571.913757 214.933487,562.271912 213.433609,550.632202 
	C212.435928,542.889709 212.920258,535.462524 216.767578,528.510681 
	C221.011932,520.841492 227.966003,518.443848 237.134872,521.472717 
	C246.514389,524.571228 253.942444,530.690613 260.823364,537.417114 
	C276.193298,552.442139 291.115875,567.930176 306.650879,582.779541 
	C327.520416,602.728210 352.109650,617.648376 376.269745,633.124695 
	C394.766907,644.973511 412.657410,657.490784 426.149078,675.388428 
	C440.699432,694.690491 449.458344,716.157471 453.157837,740.002014 
	C456.001404,758.329590 455.113983,776.429382 452.019409,794.998108 
z"/>
<path fill="#0082F6" opacity="1.000000" stroke="none" 
	d="
M474.920166,856.987488 
	C474.920166,856.987488 475.015747,857.421509 475.003784,858.066772 
	C474.673187,861.854004 474.354523,864.995911 474.035889,868.137878 
	C474.035858,868.137878 474.018341,868.579346 473.723694,869.005249 
	C473.568390,870.612854 473.707733,871.794495 473.847046,872.976135 
	C471.078583,890.300049 468.599304,907.677185 465.424377,924.926331 
	C463.738464,934.085815 454.409912,940.325073 445.898682,938.897766 
	C442.155212,938.269897 438.493530,937.157104 434.790619,936.281921 
	C434.146484,936.129700 433.481903,936.064148 432.545685,935.556152 
	C429.324432,934.198364 426.433777,933.035583 423.436249,932.320679 
	C399.159149,926.530579 374.870941,920.786316 350.568329,915.104187 
	C329.010742,910.063904 307.443756,905.061829 285.850769,900.175964 
	C280.235992,898.905518 274.508575,898.132812 268.832886,897.131470 
	C268.832886,897.131531 268.930176,897.108948 268.821198,896.823730 
	C267.734344,896.089783 266.756439,895.641113 265.778564,895.192383 
	C265.778564,895.192383 265.947418,895.101440 265.910950,894.804749 
	C264.872894,893.700195 263.871338,892.892334 262.869812,892.084534 
	C262.869781,892.084534 262.965851,892.030701 262.962708,891.679565 
	C262.008514,887.017944 259.722717,882.488586 260.385956,878.442688 
	C261.739777,870.184326 264.745117,862.203491 266.953949,854.076843 
	C270.675995,840.382690 274.307648,826.663940 277.977356,812.955566 
	C277.977356,812.955566 278.006378,812.991882 278.217224,812.869019 
	C278.593811,812.443665 278.759521,812.141235 278.925232,811.838745 
	C278.925232,811.838745 278.940063,811.942261 279.146729,811.839111 
	C279.539734,811.428528 279.726074,811.121216 279.912415,810.813843 
	C279.912415,810.813843 279.928253,810.929504 280.133820,810.831177 
	C280.529694,810.425598 280.720001,810.118225 280.910278,809.810852 
	C280.910248,809.810852 280.926422,809.925354 281.128723,809.838074 
	C281.543091,809.468323 281.755157,809.185852 281.967255,808.903381 
	C281.967255,808.903381 281.975983,808.981567 282.318237,808.977417 
	C283.938263,808.126282 285.216034,807.279175 286.493805,806.432129 
	C286.493805,806.432129 286.698700,806.421448 287.211395,806.640625 
	C292.629425,807.469727 297.527832,808.145569 302.442780,808.664185 
	C305.275970,808.963196 308.135956,809.008240 310.983856,809.167603 
	C311.163666,809.151611 311.343475,809.135498 311.767334,809.401123 
	C312.011383,809.682800 312.028320,810.001160 312.264404,810.285400 
	C313.915100,811.032837 315.301544,811.625427 316.748444,811.940247 
	C354.558380,820.167175 392.366302,828.404053 430.196472,836.537109 
	C438.102966,838.236877 446.095612,839.535950 454.296753,841.305298 
	C457.877594,842.028809 461.210236,842.466675 464.542877,842.904602 
	C464.542877,842.904602 464.817596,842.830994 465.056274,843.159485 
	C465.621857,843.601074 465.948730,843.714233 466.275604,843.827393 
	C466.275604,843.827393 466.100006,843.857117 466.222534,844.087524 
	C466.953186,844.529846 467.561249,844.741638 468.169342,844.953491 
	C468.480865,844.930115 468.739380,845.036072 469.102814,845.762512 
	C469.579926,846.476624 469.899048,846.699707 470.218170,846.922729 
	C470.218170,846.922729 470.067230,846.928650 470.164551,847.126709 
	C470.572510,847.525574 470.883087,847.726379 471.193695,847.927185 
	C471.193695,847.927185 471.061981,847.940613 471.151245,848.137878 
	C471.529572,848.545898 471.818604,848.756653 472.107635,848.967407 
	C472.107635,848.967407 472.029602,848.968079 472.053711,849.257996 
	C472.470642,850.003052 472.863434,850.458130 473.256226,850.913208 
	C473.256256,850.913208 473.128296,850.926941 473.090759,851.264771 
	C473.675568,853.397583 474.297882,855.192505 474.920166,856.987488 
z"/>
<path fill="#F8F8F9" opacity="1.000000" stroke="none" 
	d="
M246.053131,456.959564 
	C249.729904,474.634613 253.382095,491.891022 256.985504,509.157562 
	C257.759247,512.865112 258.356659,516.609497 259.129547,520.854675 
	C254.848358,518.332031 251.173782,515.566956 247.055496,513.894287 
	C242.070129,511.869446 236.782593,510.344330 231.483124,509.430603 
	C228.417694,508.902100 227.587723,507.813049 226.872879,504.989349 
	C220.377457,479.332184 213.682144,453.725494 206.986633,428.119354 
	C206.117920,424.797058 204.954865,421.548859 203.861404,418.288727 
	C200.861053,409.343292 205.519669,403.850342 214.918335,405.262817 
	C221.372284,406.232758 226.225510,409.629059 229.877090,414.940613 
	C237.659134,426.260315 241.300461,439.250214 244.969147,452.230011 
	C245.371262,453.652679 245.666351,455.105621 246.053131,456.959564 
z"/>
<path fill="#F8F8F9" opacity="1.000000" stroke="none" 
	d="
M304.905090,566.100891 
	C294.260864,555.363220 283.481537,544.753174 273.101562,533.765930 
	C271.309357,531.868835 270.905731,528.427856 270.379181,525.603455 
	C265.789917,500.985229 261.318878,476.345001 256.773651,451.497650 
	C264.558929,447.207947 271.598816,450.854706 275.538513,456.666351 
	C281.402527,465.316681 283.844879,475.209930 286.241394,485.113007 
	C292.667023,511.665466 298.976074,538.246155 305.302124,565.297852 
	C305.272797,565.780029 304.905090,566.100891 304.905090,566.100891 
z"/>
<path fill="#0293EE" opacity="1.000000" stroke="none" 
	d="
M269.057312,897.430908 
	C274.508575,898.132812 280.235992,898.905518 285.850769,900.175964 
	C307.443756,905.061829 329.010742,910.063904 350.568329,915.104187 
	C374.870941,920.786316 399.159149,926.530579 423.436249,932.320679 
	C426.433777,933.035583 429.324432,934.198364 432.157013,935.430481 
	C379.385529,923.490479 326.721222,911.275452 274.059814,899.048096 
	C272.451843,898.674805 270.873779,898.172546 269.057312,897.430908 
z"/>
<path fill="#0295EE" opacity="1.000000" stroke="none" 
	d="
M454.048553,841.019714 
	C446.095612,839.535950 438.102966,838.236877 430.196472,836.537109 
	C392.366302,828.404053 354.558380,820.167175 316.748444,811.940247 
	C315.301544,811.625427 313.915100,811.032837 312.554749,810.272949 
	C312.802338,809.959351 312.995697,809.942505 313.189026,809.925720 
	C327.762787,812.964844 342.356781,815.910461 356.906158,819.062012 
	C389.735779,826.173523 422.543335,833.386841 455.342804,840.796631 
	C454.900024,841.029602 454.474274,841.024658 454.048553,841.019714 
z"/>
<path fill="#0293EE" opacity="1.000000" stroke="none" 
	d="
M277.695099,813.176208 
	C274.307648,826.663940 270.675995,840.382690 266.953949,854.076843 
	C264.745117,862.203491 261.739777,870.184326 260.385956,878.442688 
	C259.722717,882.488586 262.008514,887.017944 262.935242,891.727295 
	C258.707642,887.368225 257.964935,881.703064 259.495148,875.911987 
	C264.535248,856.837952 269.826050,837.829956 275.092712,818.816528 
	C275.612579,816.939758 276.627655,815.200134 277.695099,813.176208 
z"/>
<path fill="#0293EE" opacity="1.000000" stroke="none" 
	d="
M310.596558,809.070374 
	C308.135956,809.008240 305.275970,808.963196 302.442780,808.664185 
	C297.527832,808.145569 292.629425,807.469727 287.268921,806.725586 
	C294.316162,803.446838 301.149963,807.735840 308.297272,808.534363 
	C308.942902,808.606506 309.572296,808.823486 310.596558,809.070374 
z"/>
<path fill="#039DF9" opacity="1.000000" stroke="none" 
	d="
M454.296753,841.305298 
	C454.474274,841.024658 454.900024,841.029602 455.645386,841.023193 
	C458.631500,841.444336 461.298004,841.876892 464.253693,842.607056 
	C461.210236,842.466675 457.877594,842.028809 454.296753,841.305298 
z"/>
<path fill="#039DF9" opacity="1.000000" stroke="none" 
	d="
M474.375305,867.919189 
	C474.354523,864.995911 474.673187,861.854004 475.015350,858.288696 
	C474.930817,861.143738 474.822754,864.422180 474.375305,867.919189 
z"/>
<path fill="#039DF9" opacity="1.000000" stroke="none" 
	d="
M475.038300,856.620239 
	C474.297882,855.192505 473.675568,853.397583 473.104553,851.201904 
	C473.822723,852.618469 474.489594,854.435730 475.038300,856.620239 
z"/>
<path fill="#0293EE" opacity="1.000000" stroke="none" 
	d="
M286.178162,806.521729 
	C285.216034,807.279175 283.938263,808.126282 282.284180,808.957764 
	C283.226105,808.165222 284.544312,807.388306 286.178162,806.521729 
z"/>
<path fill="#0293EE" opacity="1.000000" stroke="none" 
	d="
M262.966064,892.388489 
	C263.871338,892.892334 264.872894,893.700195 265.843262,894.872681 
	C264.895508,894.389099 263.978943,893.540771 262.966064,892.388489 
z"/>
<path fill="#0293EE" opacity="1.000000" stroke="none" 
	d="
M265.935730,895.475891 
	C266.756439,895.641113 267.734344,896.089783 268.814209,896.873169 
	C267.975067,896.725037 267.033997,896.242188 265.935730,895.475891 
z"/>
<path fill="#039DF9" opacity="1.000000" stroke="none" 
	d="
M473.929016,872.582153 
	C473.707733,871.794495 473.568390,870.612854 473.676056,869.220947 
	C473.952362,870.069885 473.981659,871.129089 473.929016,872.582153 
z"/>
<path fill="#039DF9" opacity="1.000000" stroke="none" 
	d="
M468.007477,844.681824 
	C467.561249,844.741638 466.953186,844.529846 466.232483,843.999023 
	C466.695099,843.923462 467.270355,844.166809 468.007477,844.681824 
z"/>
<path fill="#039DF9" opacity="1.000000" stroke="none" 
	d="
M473.193359,850.611206 
	C472.863434,850.458130 472.470642,850.003052 472.067383,849.221436 
	C472.414795,849.366455 472.772644,849.837830 473.193359,850.611206 
z"/>
<path fill="#039DF9" opacity="1.000000" stroke="none" 
	d="
M472.035278,848.697998 
	C471.818604,848.756653 471.529572,848.545898 471.156769,848.071899 
	C471.369629,848.015320 471.666290,848.221924 472.035278,848.697998 
z"/>
<path fill="#039DF9" opacity="1.000000" stroke="none" 
	d="
M471.099182,847.660034 
	C470.883087,847.726379 470.572510,847.525574 470.175598,847.052002 
	C470.394470,846.983765 470.699585,847.188354 471.099182,847.660034 
z"/>
<path fill="#039DF9" opacity="1.000000" stroke="none" 
	d="
M470.121277,846.643616 
	C469.899048,846.699707 469.579926,846.476624 469.172577,845.966980 
	C469.397705,845.908386 469.711060,846.136475 470.121277,846.643616 
z"/>
<path fill="#039DF9" opacity="1.000000" stroke="none" 
	d="
M466.154480,843.580933 
	C465.948730,843.714233 465.621857,843.601074 465.147522,843.268555 
	C465.344482,843.144226 465.688904,843.239319 466.154480,843.580933 
z"/>
<path fill="#0293EE" opacity="1.000000" stroke="none" 
	d="
M278.671753,811.939819 
	C278.759521,812.141235 278.593811,812.443665 278.194061,812.867188 
	C278.112762,812.672424 278.265503,812.356689 278.671753,811.939819 
z"/>
<path fill="#0293EE" opacity="1.000000" stroke="none" 
	d="
M279.656494,810.914307 
	C279.726074,811.121216 279.539734,811.428528 279.094604,811.834595 
	C279.024048,811.627014 279.212311,811.320862 279.656494,810.914307 
z"/>
<path fill="#0293EE" opacity="1.000000" stroke="none" 
	d="
M280.652161,809.908936 
	C280.720001,810.118225 280.529694,810.425598 280.075806,810.824707 
	C280.006134,810.613281 280.200073,810.310120 280.652161,809.908936 
z"/>
<path fill="#0293EE" opacity="1.000000" stroke="none" 
	d="
M313.033691,809.751953 
	C312.995697,809.942505 312.802338,809.959351 312.318665,809.988647 
	C312.028320,810.001160 312.011383,809.682800 312.008850,809.523560 
	C312.335388,809.279114 312.626068,809.350403 313.033691,809.751953 
z"/>
<path fill="#0293EE" opacity="1.000000" stroke="none" 
	d="
M281.700989,808.972656 
	C281.755157,809.185852 281.543091,809.468323 281.071289,809.831177 
	C281.019287,809.621704 281.227020,809.331787 281.700989,808.972656 
z"/>
<path fill="#F8F8F9" opacity="1.000000" stroke="none" 
	d="
M305.480560,565.652100 
	C305.711975,565.920471 305.735626,566.316833 305.759308,566.713135 
	C305.524689,566.685486 305.290039,566.657837 304.980255,566.365479 
	C304.905090,566.100891 305.272797,565.780029 305.480560,565.652100 
z"/>
<path fill="#F9F9F9" opacity="1.000000" stroke="none" 
	d="
M802.942932,600.800293 
	C797.494263,620.011292 793.082886,639.157166 786.449036,657.499329 
	C776.801025,684.175354 761.030762,707.510071 743.125793,729.424011 
	C735.252258,739.060547 727.659302,748.935425 720.186462,758.887878 
	C712.812988,768.708008 708.577820,779.608521 709.969849,792.202271 
	C710.205444,794.333435 710.003113,796.512878 710.003113,799.093018 
	C666.867310,808.426941 623.863098,817.732361 580.135803,827.194275 
	C578.116882,817.169678 575.692505,807.292480 574.231689,797.274780 
	C572.748474,787.103088 571.492920,776.800049 571.388306,766.541809 
	C570.839111,712.679138 592.883850,670.694275 638.103882,640.990479 
	C658.426025,627.641418 678.783081,614.305542 698.544434,600.154053 
	C717.805786,586.360535 734.366699,569.441284 750.864502,552.463013 
	C760.191528,542.864258 770.647339,534.321777 780.973267,525.760193 
	C783.867615,523.360413 787.976440,521.983459 791.750732,521.168396 
	C803.783447,518.570007 812.377197,527.007996 813.084534,540.771606 
	C813.936523,557.352112 806.240356,570.336609 796.755188,582.772827 
	C774.283569,612.236145 748.313904,638.537170 722.514221,664.993225 
	C721.700928,665.827209 720.844055,666.620239 720.057190,667.477966 
	C717.719727,670.025757 717.148560,672.681335 719.822632,675.352173 
	C722.557800,678.084045 725.171936,677.359436 727.619568,674.887085 
	C735.121338,667.309631 742.843567,659.934448 750.060486,652.094360 
	C768.177734,632.412781 786.064453,612.518921 804.061401,592.690552 
	C803.748413,594.929199 803.367676,597.652588 802.942932,600.800293 
z"/>
<path fill="#0082F5" opacity="1.000000" stroke="none" 
	d="
M562.715759,930.086304 
	C561.166260,924.416504 559.151672,918.827026 558.155273,913.061646 
	C555.276001,896.401855 552.820496,879.668945 550.171082,862.969177 
	C548.674072,853.533142 554.362366,844.172546 564.093689,841.705017 
	C578.207031,838.126282 592.469727,835.122070 606.706909,832.049805 
	C641.503174,824.540955 676.321106,817.132812 711.130798,809.686340 
	C717.442322,808.336182 723.748840,806.960754 730.070435,805.659241 
	C738.895447,803.842407 747.444702,807.955200 749.962036,816.424927 
	C755.948059,836.565552 761.675842,856.799866 766.782837,877.178040 
	C769.484558,887.958557 763.210205,896.375916 752.204163,898.916016 
	C742.061157,901.256897 731.925720,903.630371 721.135864,905.692505 
	C720.003784,905.310181 719.484436,905.060791 719.047180,905.162903 
	C699.398438,909.750854 679.765686,914.407715 660.112122,918.974731 
	C638.357361,924.030090 616.566162,928.929688 594.827759,934.053711 
	C585.562439,936.237610 576.399353,939.550049 567.091858,934.340759 
	C566.993347,934.285645 566.782837,934.430481 566.624634,934.482056 
	C566.624634,934.482056 566.891113,934.442322 566.758545,934.132202 
	C566.276184,933.744446 565.926514,933.666809 565.576782,933.589233 
	C565.576782,933.589233 565.527954,933.491821 565.554688,933.168579 
	C565.239075,932.744568 564.896729,932.643799 564.554382,932.543091 
	C564.554382,932.543091 564.573181,932.460266 564.588135,932.139771 
	C564.263794,931.664307 563.924500,931.509399 563.585266,931.354431 
	C563.585266,931.354431 563.652161,931.246216 563.655029,931.002563 
	C563.343811,930.534729 563.029785,930.310486 562.715759,930.086304 
z"/>
<path fill="#F8F9F9" opacity="1.000000" stroke="none" 
	d="
M778.480896,514.416504 
	C774.531921,516.872437 770.892761,519.116882 766.885315,521.588501 
	C768.615479,512.387207 769.937622,503.303772 772.073303,494.415771 
	C776.832397,474.609528 781.622986,454.795074 787.157410,435.197632 
	C789.892639,425.512054 794.246582,416.189667 802.734192,409.870178 
	C805.268921,407.982910 808.430908,406.519867 811.517395,405.872681 
	C819.757812,404.144684 825.118774,408.286896 824.885132,416.627777 
	C824.611816,426.386292 823.695190,436.148010 822.604675,445.857452 
	C820.942322,460.658905 818.891052,475.416656 817.004944,490.192963 
	C815.938110,498.550293 814.871338,506.907654 813.748413,515.705261 
	C802.349182,506.689056 790.623474,508.671722 778.480896,514.416504 
z"/>
<path fill="#F8F8F8" opacity="1.000000" stroke="none" 
	d="
M731.139526,557.139404 
	C727.969116,560.272339 725.049072,563.153992 721.326233,566.827942 
	C724.034424,554.779236 726.312317,543.698914 729.036133,532.729248 
	C734.229065,511.815857 739.536377,490.928040 745.131470,470.119751 
	C746.303528,465.760712 748.574768,461.577667 750.950867,457.686859 
	C755.852600,449.660400 761.017883,448.157959 770.194336,451.689911 
	C768.383545,460.112305 766.405518,468.571564 764.765381,477.095795 
	C761.396790,494.602478 758.274170,512.156677 754.862244,529.654602 
	C754.449341,531.771729 753.249268,534.007446 751.777100,535.599060 
	C745.106445,542.811035 738.207092,549.811584 731.139526,557.139404 
z"/>
<path fill="#0192EE" opacity="1.000000" stroke="none" 
	d="
M566.831299,934.747192 
	C566.782837,934.430481 566.993347,934.285645 567.091858,934.340759 
	C576.399353,939.550049 585.562439,936.237610 594.827759,934.053711 
	C616.566162,928.929688 638.357361,924.030090 660.112122,918.974731 
	C679.765686,914.407715 699.398438,909.750854 719.047180,905.162903 
	C719.484436,905.060791 720.003784,905.310181 720.737122,905.650879 
	C704.445435,909.872559 687.925781,913.943787 671.352173,917.782532 
	C641.403320,924.719238 611.410706,931.466980 581.465271,938.418335 
	C575.952515,939.698120 571.378113,938.129456 566.831299,934.747192 
z"/>
<path fill="#0192EE" opacity="1.000000" stroke="none" 
	d="
M565.690796,933.794495 
	C565.926514,933.666809 566.276184,933.744446 566.623840,934.129517 
	C566.293945,934.394836 566.021606,934.249146 565.690796,933.794495 
z"/>
<path fill="#0192EE" opacity="1.000000" stroke="none" 
	d="
M563.662476,931.590820 
	C563.924500,931.509399 564.263794,931.664307 564.549194,932.122925 
	C564.152710,932.341370 563.900818,932.141541 563.662476,931.590820 
z"/>
<path fill="#0192EE" opacity="1.000000" stroke="none" 
	d="
M562.809204,930.354858 
	C563.029785,930.310486 563.343811,930.534729 563.678955,931.061523 
	C563.434265,931.117188 563.168457,930.870300 562.809204,930.354858 
z"/>
<path fill="#0192EE" opacity="1.000000" stroke="none" 
	d="
M564.641479,932.744751 
	C564.896729,932.643799 565.239075,932.744568 565.505371,933.145264 
	C565.131409,933.369446 564.897766,933.203125 564.641479,932.744751 
z"/>
</svg>
