<svg width="1735" height="300" viewBox="0 100 1800 200" fill="none" xmlns="http://www.w3.org/2000/svg"><path d="M417.365 171.068q-1.784 2.526-3.568 3.716-1.635 1.04-4.162 1.04-2.824 0-5.649-1.486a113 113 0 0 0-6.094-3.122q-3.42-1.784-7.879-3.27-4.31-1.486-10.256-1.486-11.149 0-16.649 4.756-5.351 4.758-5.351 11.892 0 5.798 4.31 9.365 4.31 3.418 10.852 6.243a479 479 0 0 0 14.121 5.5 65.6 65.6 0 0 1 14.122 7.284q6.54 4.46 10.851 11.446 4.311 6.987 4.311 17.838 0 11.297-4.459 21.405-4.46 10.108-12.933 17.689-8.324 7.581-20.216 12.041t-26.608 4.459q-7.284 0-14.27-1.486a71 71 0 0 1-13.081-3.865q-6.095-2.675-11.149-6.095-4.905-3.418-8.324-7.432l10.108-15.311q1.784-2.676 4.311-4.162t6.094-1.486q3.27 0 5.946 1.932a673 673 0 0 1 5.946 4.014q3.27 2.08 7.73 4.013 4.608 1.784 11.892 1.784 5.5 0 9.662-1.338 4.31-1.486 7.135-3.865 2.973-2.527 4.311-5.797a16.3 16.3 0 0 0 1.486-6.838q0-6.54-4.31-10.108t-10.852-6.243q-6.392-2.676-13.973-5.203a60 60 0 0 1-14.121-6.838q-6.392-4.311-10.703-11.148-4.311-6.839-4.311-18.284a53.6 53.6 0 0 1 3.865-20.068q4.014-9.81 11.595-17.392t18.729-12.189q11.298-4.608 26.014-4.608 15.013 0 26.608 5.203 11.743 5.054 19.473 12.932zm30.837 90.824v-2.378q0-1.487.149-4.163.297-2.823.743-7.283.595-4.608 1.487-11.892l8.175-66h-13.378q-2.973 0-4.905-2.081-1.784-2.082-1.19-6.243l1.933-16.054 23.189-4.46 12.635-39.689q2.08-6.69 9.068-6.69h22l-5.798 46.676h35.825l-3.419 28.541h-35.825l-7.878 63.77q-.743 6.095-1.189 9.662a210 210 0 0 1-.743 5.5q-.149 1.932-.149 2.676v.892q0 5.202 2.378 8.324 2.379 2.973 7.135 2.973 2.676 0 4.609-.595 1.932-.743 3.27-1.486a41 41 0 0 1 2.676-1.487 4.7 4.7 0 0 1 2.527-.743q1.932 0 2.824.892.891.743 1.784 2.676l8.919 19.621q-8.622 6.69-18.879 10.108-10.257 3.42-20.662 3.419-16.946 0-26.905-9.067-9.811-9.216-10.406-25.419m149.278-86.959q5.798-10.703 12.189-18.284 6.541-7.582 13.527-11.743 6.987-4.31 14.271-4.906 7.283-.743 14.716 2.527l-7.433 38.5q-8.769-3.716-16.5-3.121-7.581.594-14.121 5.945-6.391 5.352-11.595 15.609-5.202 10.256-9.067 25.864L585.142 294h-40.283l18.581-153.405h21.108q6.392 0 9.959 3.121 3.568 3.121 3.568 9.96zm131.742-8.176q-6.54 0-12.338 2.824-5.797 2.676-10.554 7.73-4.608 4.905-8.175 11.892t-5.798 15.608q16.5-2.379 26.608-5.054 10.258-2.825 15.757-5.946 5.649-3.27 7.433-6.987 1.932-3.716 1.932-8.027 0-2.08-.892-4.162a10.44 10.44 0 0 0-2.676-3.865q-1.784-1.783-4.608-2.824-2.824-1.19-6.689-1.189m-40.135 64.365q0 34.04 28.689 34.04 9.514 0 15.46-2.378 6.094-2.528 10.405-5.352 4.311-2.972 7.878-5.351 3.717-2.527 8.473-2.527 2.082 0 3.865 1.041a10.6 10.6 0 0 1 3.419 2.527l10.406 12.486q-8.027 8.027-15.609 13.824-7.581 5.649-15.756 9.514a78.3 78.3 0 0 1-17.095 5.5q-8.919 1.784-19.621 1.784-13.528 0-24.676-4.608t-19.176-12.933q-7.878-8.472-12.338-20.216-4.31-11.892-4.31-26.459 0-12.19 2.675-23.784 2.676-11.595 7.73-22t12.189-19.027q7.284-8.77 16.5-15.014 9.216-6.392 20.068-9.959 11-3.568 23.338-3.568 12.04 0 21.256 3.568 9.366 3.419 15.608 9.067 6.244 5.5 9.365 12.338 3.27 6.838 3.27 13.676 0 10.257-4.162 18.878-4.161 8.622-14.567 15.46-10.406 6.689-28.243 11.594-17.838 4.757-45.041 7.433zm205.353-63.919a24 24 0 0 0-2.675-.149h-2.676q-11.892 0-21.851 5.352-9.96 5.35-17.244 14.567-7.134 9.216-11.297 21.405-4.014 12.19-4.013 25.717 0 15.459 4.756 22.446 4.757 6.837 12.487 6.837 5.5 0 10.851-4.013 5.5-4.014 10.257-11 4.756-6.987 8.77-16.351 4.014-9.514 6.987-20.217zm-10.108 97.959q-9.81 14.42-22 22.743-12.04 8.325-26.608 8.325-8.473 0-16.203-3.271-7.58-3.418-13.378-10.108-5.798-6.837-9.216-17.094-3.27-10.406-3.27-24.23t3.419-26.757q3.418-13.08 9.81-24.527a103.2 103.2 0 0 1 15.46-20.959q9.216-9.661 20.365-16.5 11.296-6.839 24.378-10.554 13.23-3.865 27.797-3.865 10.702 0 21.406 1.635 10.702 1.487 21.108 5.352L918.967 294h-21.851q-3.865 0-6.541-1.041-2.526-1.04-4.162-2.824-1.486-1.783-2.081-4.162-.594-2.379-.594-5.203zM950.448 294l18.581-153.405h21.108q6.391 0 9.963 3.121c2.38 2.081 3.56 5.401 3.56 9.96l-.44 13.081c6.74-9.613 13.92-16.748 21.55-21.405 7.63-4.658 15.66-6.987 24.08-6.987 9.02 0 16.31 2.973 21.85 8.919q8.475 8.919 10.26 26.013 10.56-17.986 23.04-26.459c8.43-5.649 17.74-8.473 27.95-8.473 6.44 0 12.14 1.288 17.09 3.865 5.06 2.577 9.17 6.342 12.34 11.297q4.905 7.433 6.69 18.284t0 24.824L1156.62 294h-40.43l11.45-97.365c1.19-9.216.89-15.707-.89-19.473-1.69-3.865-4.91-5.797-9.67-5.797-3.47 0-6.83.941-10.1 2.824-3.18 1.784-6.2 4.41-9.07 7.879-2.88 3.468-5.55 7.68-8.03 12.635q-3.72 7.284-6.39 16.648L1073.68 294h-40.43l11.59-97.365c1.09-9.216.84-15.707-.74-19.473-1.59-3.865-4.81-5.797-9.67-5.797-3.56 0-6.98.991-10.25 2.973-3.27 1.883-6.39 4.608-9.37 8.176-2.87 3.567-5.55 7.928-8.02 13.081-2.38 5.054-4.46 10.752-6.25 17.094L990.732 294z" fill="#282E33"/><path d="M1406.97 140.743 1344.09 294h-31.81q-2.535 0-4.02-1.635c-.99-1.09-1.73-2.924-2.23-5.5l-13.08-82.946c-.59-3.964-1.04-7.977-1.34-12.04q-1.035 3.121-2.22 6.243c-.8 1.982-1.59 4.013-2.38 6.094l-33.15 82.649c-1.98 4.757-4.91 7.135-8.77 7.135h-30.62l-25.57-153.257h31.36q4.02 0 6.54 2.082 2.685 2.08 3.42 5.351l6.84 75.811c.6 9.414 1.04 18.482 1.34 27.202 1.68-4.459 3.37-8.919 5.05-13.378 1.69-4.46 3.52-9.068 5.5-13.824l29.88-76.108c.79-2.082 2.18-3.816 4.16-5.203q3.12-2.082 6.84-2.081h17.54c2.88 0 5.15.693 6.84 2.081q2.67 2.08 2.97 5.203l11 76.108a367 367 0 0 1 1.79 13.675c.59 4.46 1.14 8.919 1.63 13.379 1.29-4.46 2.63-8.87 4.01-13.23 1.39-4.46 2.93-9.068 4.61-13.824l25.87-75.811c.79-2.18 2.18-3.964 4.16-5.351q2.97-2.082 6.69-2.082zm59.5 0L1448.18 294h-40.43l18.28-153.257zm8.92-43.553c0 3.468-.75 6.689-2.23 9.662a26.1 26.1 0 0 1-5.65 7.878c-2.28 2.279-4.96 4.063-8.03 5.351-2.97 1.289-6.04 1.933-9.22 1.933q-4.755 0-9.21-1.933c-2.88-1.288-5.45-3.072-7.73-5.351-2.18-2.279-3.97-4.905-5.35-7.878-1.29-2.973-1.94-6.194-1.94-9.663 0-3.369.7-6.54 2.09-9.513 1.38-3.072 3.17-5.748 5.35-8.027 2.28-2.28 4.85-4.063 7.73-5.351q4.455-2.082 9.21-2.082c3.27 0 6.4.645 9.37 1.933 3.07 1.288 5.75 3.072 8.03 5.351 2.27 2.28 4.11 4.955 5.5 8.027 1.38 2.973 2.08 6.194 2.08 9.662m109.39 73.878q-1.785 2.526-3.57 3.716c-1.09.694-2.48 1.04-4.16 1.04-1.89 0-3.77-.495-5.65-1.486-1.78-.991-3.82-2.032-6.1-3.122-2.27-1.189-4.9-2.279-7.87-3.27q-4.32-1.486-10.26-1.486-11.145 0-16.65 4.756c-3.57 3.172-5.35 7.136-5.35 11.892 0 3.865 1.44 6.987 4.31 9.365 2.87 2.279 6.49 4.36 10.85 6.243a483 483 0 0 0 14.12 5.5 65.5 65.5 0 0 1 14.12 7.284c4.37 2.973 7.98 6.788 10.86 11.446 2.87 4.658 4.31 10.604 4.31 17.838 0 7.531-1.49 14.667-4.46 21.405q-4.47 10.108-12.93 17.689-8.325 7.581-20.22 12.041t-26.61 4.459c-4.85 0-9.61-.495-14.27-1.486a71 71 0 0 1-13.08-3.865c-4.06-1.784-7.78-3.815-11.15-6.095-3.27-2.279-6.04-4.756-8.32-7.432l10.1-15.311q1.785-2.676 4.32-4.162 2.52-1.486 6.09-1.486c2.18 0 4.16.644 5.95 1.932q2.67 1.784 5.94 4.014c2.18 1.387 4.76 2.725 7.73 4.013 3.07 1.189 7.04 1.784 11.89 1.784 3.67 0 6.89-.446 9.67-1.338 2.87-.991 5.25-2.279 7.13-3.865 1.98-1.685 3.42-3.617 4.31-5.797.99-2.18 1.49-4.46 1.49-6.838 0-4.36-1.44-7.73-4.31-10.108-2.88-2.378-6.49-4.46-10.85-6.243-4.27-1.784-8.92-3.518-13.98-5.203-5.05-1.685-9.76-3.964-14.12-6.838-4.26-2.874-7.83-6.59-10.7-11.148-2.88-4.559-4.31-10.654-4.31-18.284a53.7 53.7 0 0 1 3.86-20.068c2.68-6.54 6.54-12.338 11.6-17.392 5.05-5.054 11.29-9.117 18.73-12.189q11.295-4.608 26.01-4.608 15.015 0 26.61 5.203 11.745 5.054 19.47 12.932zm98.17-4.311q-6.54 0-12.33 2.824-5.805 2.676-10.56 7.73c-3.07 3.27-5.8 7.234-8.17 11.892-2.38 4.657-4.32 9.86-5.8 15.608q16.5-2.379 26.61-5.054c6.83-1.883 12.09-3.865 15.75-5.946q5.655-3.27 7.44-6.987c1.28-2.477 1.93-5.153 1.93-8.027 0-1.387-.3-2.774-.89-4.162a10.5 10.5 0 0 0-2.68-3.865c-1.19-1.189-2.73-2.13-4.61-2.824q-2.82-1.19-6.69-1.189m-40.13 64.365c0 22.693 9.56 34.04 28.69 34.04 6.34 0 11.49-.793 15.46-2.378 4.06-1.685 7.53-3.469 10.4-5.352 2.88-1.981 5.5-3.765 7.88-5.351 2.48-1.685 5.3-2.527 8.47-2.527q2.085 0 3.87 1.041a10.55 10.55 0 0 1 3.42 2.527l10.4 12.486c-5.35 5.351-10.55 9.96-15.61 13.824q-7.575 5.649-15.75 9.514a78.2 78.2 0 0 1-17.1 5.5q-8.91 1.784-19.62 1.784c-9.02 0-17.24-1.536-24.67-4.608-7.44-3.072-13.83-7.383-19.18-12.933-5.25-5.648-9.36-12.387-12.34-20.216-2.87-7.928-4.31-16.748-4.31-26.459 0-8.127.89-16.054 2.68-23.784 1.78-7.73 4.36-15.063 7.73-22s7.43-13.279 12.19-19.027q7.275-8.77 16.5-15.014c6.14-4.261 12.83-7.581 20.06-9.959q11.01-3.568 23.34-3.568c8.03 0 15.11 1.19 21.26 3.568 6.24 2.279 11.44 5.302 15.61 9.067q6.24 5.5 9.36 12.338 3.27 6.838 3.27 13.676c0 6.838-1.39 13.131-4.16 18.878-2.78 5.748-7.63 10.901-14.57 15.46-6.94 4.459-16.35 8.324-28.24 11.594-11.89 3.172-26.91 5.649-45.04 7.433z" fill="#0088EB"/><path d="m256.819 111.723-151.401 33.842a10 10 0 0 0-7.643 7.896l-13.501 71.187a10 10 0 0 0 7.479 11.585l164.901 39.788c6.292 1.518 12.346-3.249 12.346-9.721V121.482c0-6.403-5.933-11.156-12.181-9.759" fill="#7AB7FF"/><path d="M104.838 85C72.288 113.5 46.713 127.5 13 127.5c0 104 41 134.5 91.838 166.5C154 269 199 234.5 199 127.5c-31.387 0-61.613-14.5-94.162-42.5Z" fill="#0088EB" stroke="#0088EB" stroke-width="20" stroke-linejoin="round"/><mask id="a" style="mask-type:alpha" maskUnits="userSpaceOnUse" x="78" y="121" width="160" height="150"><path d="M214.076 121.7 86.728 147.343a10 10 0 0 0-8.023 10.047l1.613 66.132a10 10 0 0 0 7.407 9.415l137.428 36.85c6.719 1.802 13.179-3.637 12.549-10.564l-11.693-128.625c-.539-5.926-6.1-10.073-11.933-8.898" fill="#7AB7FF"/></mask><g mask="url(#a)"><path d="M104.838 85C72.288 113.5 46.713 127.5 13 127.5c0 104 41 134.5 91.838 166.5C154 269 199 234.5 199 127.5c-31.387 0-61.613-14.5-94.162-42.5Z" fill="#A6CFFF" stroke="#A6CFFF" stroke-width="20" stroke-linejoin="round"/></g><path d="M148.485 181.397c6.535 3.874 6.535 13.332 0 17.206l-55.136 32.678c-6.666 3.951-15.099-.854-15.099-8.603v-65.356c0-7.749 8.433-12.554 15.099-8.603z" fill="#fff"/></svg>