<svg width="30" height="31" viewBox="0 0 30 31" fill="none" xmlns="http://www.w3.org/2000/svg">
<path fill-rule="evenodd" clip-rule="evenodd" d="M28 28.6064H22.8V19.5077C22.8 17.0117 21.6989 15.6191 19.7242 15.6191C17.5753 15.6191 16.3 17.0702 16.3 19.5077V28.6064H11.1V11.7064H16.3V13.6069C16.3 13.6069 17.9315 10.7441 21.6079 10.7441C25.2856 10.7441 28 12.9884 28 17.632V28.6064ZM5.1746 9.00361C3.4209 9.00361 2 7.57109 2 5.80439C2 4.03899 3.4209 2.60645 5.1746 2.60645C6.927 2.60645 8.34789 4.03899 8.34789 5.80439C8.34919 7.57109 6.927 9.00361 5.1746 9.00361ZM2 28.6064H8.5V11.7064H2V28.6064Z" fill="black"/>
</svg>
