<svg version="1.1" id="Layer_1" xmlns="http://www.w3.org/2000/svg" xmlns:xlink="http://www.w3.org/1999/xlink" x="0px" y="0px"
	 width="100%" viewBox="0 0 1024 1024" enable-background="new 0 0 1024 1024" xml:space="preserve">

<path fill="#FFFFFF" opacity="1.000000" stroke="none" 
	d="
M801.000000,520.989441 
	C800.336426,528.480164 799.533630,535.466675 799.049805,542.475220 
	C798.600281,548.987061 799.518005,552.650146 809.451782,552.897400 
	C819.439331,553.145874 829.222412,553.432251 838.858032,556.867432 
	C860.081665,564.433838 874.104736,579.263428 880.382751,600.259338 
	C886.256958,619.904541 881.979492,638.722839 869.318787,655.116272 
	C857.166687,670.851135 840.518494,677.927551 821.033386,677.937439 
	C620.888245,678.039490 420.742981,677.937378 220.597931,678.107300 
	C202.713120,678.122498 186.753876,673.395203 172.449478,662.907715 
	C156.967682,651.556946 146.736099,636.958801 143.921158,617.476379 
	C140.910416,596.638916 147.217224,578.835510 160.452042,563.086792 
	C172.467056,548.789612 188.240417,541.226746 206.472580,539.162720 
	C215.173737,538.177734 224.095078,538.624451 232.881470,539.088745 
	C238.596817,539.390747 243.100281,534.480103 241.959686,527.630615 
	C239.458633,512.611145 241.200699,498.073578 246.559937,483.922180 
	C254.563339,462.788666 268.422729,446.743927 288.027008,435.379700 
	C305.051971,425.510651 323.440155,422.432770 342.572296,424.244812 
	C350.238220,424.970886 357.722961,428.191101 365.152618,430.685669 
	C374.687836,433.887177 374.675140,430.986542 375.940887,422.902252 
	C376.322876,420.462341 376.015442,417.911896 375.997559,415.412323 
	C375.847504,394.454132 381.190491,374.782074 390.015381,355.950073 
	C399.111450,336.539490 411.249969,319.203033 427.488953,305.212952 
	C445.741425,289.488220 466.951172,279.662842 490.736664,274.783295 
	C506.483246,271.552887 522.312012,271.021698 537.970703,272.296814 
	C561.093079,274.179779 582.345764,282.450897 601.487976,295.928070 
	C623.465088,311.401154 641.065430,330.613129 652.479370,355.065033 
	C659.044373,369.129364 663.868530,383.833282 664.944946,399.460419 
	C665.580627,408.688416 665.614319,417.956696 666.033936,427.201630 
	C666.150696,429.775970 666.435303,432.394409 667.076111,434.880981 
	C667.985718,438.410706 672.456848,439.992859 676.962341,438.554260 
	C683.806885,436.368835 690.535828,433.752655 697.478882,431.958069 
	C713.803406,427.738617 729.795349,429.817139 745.310425,435.797699 
	C764.925903,443.358887 780.231750,456.014862 790.324402,474.714600 
	C795.420227,484.156097 799.164551,493.978455 799.989441,504.756348 
	C800.390564,509.997620 800.667114,515.248413 801.000000,520.989441 
z"/>
</svg>
