<?xml version="1.0" encoding="UTF-8"?>
<svg version="1.1" xmlns="http://www.w3.org/2000/svg" width="270" height="246">
<path d="M0 0 C2.11623656 1.27434245 3.9496811 2.69843556 5.859375 4.26953125 C8.08360568 6.04657758 10.31580566 7.81358159 12.546875 9.58203125 C13.14935059 10.06220703 13.75182617 10.54238281 14.37255859 11.03710938 C25.50106594 19.8216841 42.11535943 32.37294787 56.97070312 31.05517578 C62.23312258 30.40742172 66.5701106 28.51884411 71.328125 26.26171875 C72.20730591 25.85801056 73.08648682 25.45430237 73.99230957 25.0383606 C76.78708971 23.75246606 79.57341964 22.44941931 82.359375 21.14453125 C103.97166064 11.11624769 103.97166064 11.11624769 113.203125 7.15234375 C114.19451477 6.70856888 114.19451477 6.70856888 115.20593262 6.25582886 C121.02307366 3.81168867 126.11360796 3.26627022 132.109375 5.45703125 C135.6771561 7.80852334 137.95158579 10.45395282 139.859375 14.26953125 C139.96126839 16.7015554 140.00276686 19.10520123 139.99981689 21.53767395 C140.00278802 22.29539571 140.00575914 23.05311747 140.0088203 23.83380049 C140.01752885 26.38636305 140.01901736 28.93887882 140.02050781 31.49145508 C140.02513447 33.31612753 140.03015893 35.14079901 140.03555298 36.96546936 C140.0486939 41.93247002 140.05512527 46.89945715 140.05956364 51.86647248 C140.06249173 54.96779898 140.06659603 58.06912176 140.07106781 61.1704464 C140.08474739 70.86832882 140.09441171 80.56620277 140.0982697 90.26409417 C140.1027513 101.46890773 140.12030199 112.67359935 140.1492703 123.87837583 C140.17086922 132.53235304 140.18097303 141.1862959 140.18231082 149.84029979 C140.18336016 155.01210409 140.18929534 160.18379385 140.20713043 165.35556984 C140.22358012 170.22041133 140.22578173 175.08505177 140.21699142 179.94991112 C140.21621937 181.73614413 140.22058581 183.52238781 140.23044968 185.30859375 C140.24312147 187.74611586 140.23731867 190.18292084 140.22686768 192.62043762 C140.23492408 193.32822556 140.24298048 194.03601349 140.25128102 194.76524955 C140.19116178 200.75572589 138.24355642 203.71232715 134.359375 208.08203125 C130.02373948 211.46075901 125.09170964 210.90494031 119.859375 210.26953125 C115.81072477 209.05076454 112.09980244 207.29225119 108.296875 205.45703125 C106.57271445 204.66266537 104.84853123 203.86834803 103.12384033 203.07513428 C100.46404428 201.84589994 97.81330999 200.59762486 95.16168213 199.35089111 C87.90174731 195.94100629 80.62708895 192.56383644 73.33914185 189.21426392 C70.50732681 187.90514166 67.68627016 186.57456256 64.86499023 185.24291992 C63.10577139 184.43046937 61.34610677 183.61898317 59.5859375 182.80859375 C58.77867722 182.42070175 57.97141693 182.03280975 57.13969421 181.63316345 C52.75695905 179.58460678 52.75695905 179.58460678 48.05004883 179.84423828 C45.85360433 181.27328576 43.98500989 182.734434 42.08203125 184.53515625 C31.79609705 193.83312155 19.10104852 200.42867709 6.734375 206.51953125 C5.78747803 206.99745117 4.84058105 207.47537109 3.86499023 207.96777344 C-3.50505253 211.48122434 -8.98214955 212.55209263 -16.8515625 210.125 C-18.08219042 209.58985018 -19.3034469 209.03275225 -20.515625 208.45703125 C-21.18916016 208.14789795 -21.86269531 207.83876465 -22.55664062 207.52026367 C-54.05192725 192.6678631 -81.34007929 171.37520939 -94.00439453 137.99267578 C-101.89246346 115.65012776 -104.3176592 91.98171103 -104.43579102 68.42285156 C-104.4473993 66.81338777 -104.46798782 65.20396502 -104.49731445 63.59472656 C-104.82824305 45.33634184 -104.82824305 45.33634184 -100.140625 40.26953125 C-94.0278637 34.58736941 -88.06573271 33.32707303 -79.953125 32.70703125 C-55.49213162 30.12942538 -38.59901577 16.98517944 -20.1640625 1.765625 C-14.87445923 -2.14541371 -6.07197966 -2.07200766 0 0 Z " fill="#FCFDFF" transform="translate(117.140625,20.73046875)"/>
<path d="M0 0 C3.5677811 2.35149209 5.84221079 4.99692157 7.75 8.8125 C7.85189339 11.24452415 7.89339186 13.64816998 7.89044189 16.0806427 C7.89341302 16.83836446 7.89638414 17.59608622 7.8994453 18.37676924 C7.90815385 20.9293318 7.90964236 23.48184757 7.91113281 26.03442383 C7.91575947 27.85909628 7.92078393 29.68376776 7.92617798 31.50843811 C7.9393189 36.47543877 7.94575027 41.4424259 7.95018864 46.40944123 C7.95311673 49.51076773 7.95722103 52.61209051 7.96169281 55.71341515 C7.97537239 65.41129757 7.98503671 75.10917152 7.9888947 84.80706292 C7.9933763 96.01187648 8.01092699 107.2165681 8.0398953 118.42134458 C8.06149422 127.07532179 8.07159803 135.72926465 8.07293582 144.38326854 C8.07398516 149.55507284 8.07992034 154.7267626 8.09775543 159.89853859 C8.11420512 164.76338008 8.11640673 169.62802052 8.10761642 174.49287987 C8.10684437 176.27911288 8.11121081 178.06535656 8.12107468 179.8515625 C8.13374647 182.28908461 8.12794367 184.72588959 8.11749268 187.16340637 C8.12554908 187.87119431 8.13360548 188.57898224 8.14190602 189.3082183 C8.08178678 195.29869464 6.13418142 198.2552959 2.25 202.625 C-2.08563552 206.00372776 -7.01766536 205.44790906 -12.25 204.8125 C-16.29855985 203.5937605 -20.01024186 201.83651534 -23.8125 200 C-25.53335782 199.20111492 -27.25425644 198.40231571 -28.97605896 197.60546875 C-30.24234044 197.01752168 -31.50724611 196.42660404 -32.77088928 195.83300781 C-38.57741573 193.10552567 -44.42514464 190.47453468 -50.28125 187.85546875 C-52.20374691 186.99401309 -54.12619146 186.13244054 -56.04858398 185.27075195 C-58.92829782 183.97997593 -61.8081221 182.68945858 -64.68875122 181.40072632 C-67.40007754 180.18583448 -70.10856758 178.96482935 -72.81640625 177.7421875 C-73.63915039 177.37494064 -74.46189453 177.00769379 -75.30957031 176.62931824 C-76.06407471 176.28741959 -76.8185791 175.94552094 -77.59594727 175.59326172 C-78.256194 175.29636444 -78.91644073 174.99946716 -79.59669495 174.693573 C-81.25 173.8125 -81.25 173.8125 -83.25 171.8125 C-82.57517578 171.2246875 -82.57517578 171.2246875 -81.88671875 170.625 C-62.9524802 153.01881426 -52.57182309 126.81267556 -48.25 101.8125 C-48.11319824 101.06726074 -47.97639648 100.32202148 -47.83544922 99.55419922 C-45.45027187 86.15471928 -44.91331264 72.82604715 -44.8125 59.25 C-44.80046539 58.43014618 -44.78843079 57.61029236 -44.77603149 56.76559448 C-44.74629997 54.40437898 -44.74548234 52.04494838 -44.75390625 49.68359375 C-44.74280823 48.97819458 -44.73171021 48.27279541 -44.72027588 47.54602051 C-44.79000897 42.51581891 -46.12849357 39.70281859 -49.25 35.8125 C-54.74399353 30.86790582 -59.21821631 29.47228587 -66.5 28.6875 C-67.24507812 28.60113281 -67.99015625 28.51476562 -68.7578125 28.42578125 C-70.58777846 28.21463133 -72.41879879 28.01265455 -74.25 27.8125 C-72.51327219 24.33904438 -68.3609558 23.47533441 -64.921875 21.99609375 C-64.06917526 21.6231871 -63.21647552 21.25028046 -62.3379364 20.86607361 C-59.56152197 19.6539312 -56.78106065 18.45144014 -54 17.25 C-52.10800859 16.42888382 -50.21616267 15.60743235 -48.32446289 14.78564453 C-45.52421239 13.56975287 -42.72357248 12.35480949 -39.92152405 11.14306641 C-34.97681148 9.00385917 -30.04711887 6.83790693 -25.13671875 4.62109375 C-24.1837793 4.19578369 -23.23083984 3.77047363 -22.24902344 3.33227539 C-20.60802999 2.59889584 -18.97146302 1.85547994 -17.34082031 1.09936523 C-11.38320576 -1.52681275 -6.30188077 -2.30261028 0 0 Z " fill="#FEFEFF" transform="translate(249.25,26.1875)"/>
<path d="M0 0 C2.11623656 1.27434245 3.9496811 2.69843556 5.859375 4.26953125 C8.08360568 6.04657758 10.31580566 7.81358159 12.546875 9.58203125 C13.14935059 10.06220703 13.75182617 10.54238281 14.37255859 11.03710938 C30.22836985 23.55330355 48.5144006 32.63146394 68.921875 33.70703125 C75.01892064 34.11411776 79.17678978 36.54011786 83.42578125 40.86328125 C87.4472824 45.53784668 88.03364833 48.55979394 88.09765625 54.5390625 C88.10735947 55.27923615 88.11706268 56.01940979 88.12705994 56.78201294 C88.15224475 59.21540676 88.16463814 61.64851946 88.171875 64.08203125 C88.17580261 65.32546799 88.17580261 65.32546799 88.17980957 66.59402466 C88.18363254 77.91862871 87.6842043 88.98515326 86.109375 100.20703125 C85.95251221 101.32762939 85.79564941 102.44822754 85.6340332 103.6027832 C84.36855119 111.69883336 82.22735055 119.43401522 79.859375 127.26953125 C79.57143066 128.28257324 79.28348633 129.29561523 78.98681641 130.33935547 C74.61574743 145.54591017 65.96587914 159.26265881 55.859375 171.26953125 C55.30121094 171.99011719 54.74304688 172.71070313 54.16796875 173.453125 C42.04661861 188.55164885 22.83418933 198.54024482 5.796875 206.95703125 C4.94085693 207.39152588 4.08483887 207.82602051 3.20288086 208.27368164 C-3.86032451 211.64514827 -9.3201165 212.4478565 -16.8515625 210.125 C-18.08219042 209.58985018 -19.3034469 209.03275225 -20.515625 208.45703125 C-21.18916016 208.14789795 -21.86269531 207.83876465 -22.55664062 207.52026367 C-54.05192725 192.6678631 -81.34007929 171.37520939 -94.00439453 137.99267578 C-101.89246346 115.65012776 -104.3176592 91.98171103 -104.43579102 68.42285156 C-104.4473993 66.81338777 -104.46798782 65.20396502 -104.49731445 63.59472656 C-104.82824305 45.33634184 -104.82824305 45.33634184 -100.140625 40.26953125 C-94.0278637 34.58736941 -88.06573271 33.32707303 -79.953125 32.70703125 C-55.49213162 30.12942538 -38.59901577 16.98517944 -20.1640625 1.765625 C-14.87445923 -2.14541371 -6.07197966 -2.07200766 0 0 Z M-20.140625 15.26953125 C-37.85519316 29.86679553 -57.47248224 42.80540625 -81.140625 43.51953125 C-86.8729292 43.73583499 -86.8729292 43.73583499 -91.453125 46.76953125 C-92.01 47.59453125 -92.566875 48.41953125 -93.140625 49.26953125 C-93.635625 49.76453125 -93.635625 49.76453125 -94.140625 50.26953125 C-94.4016431 54.90863441 -94.33490579 59.56123101 -94.328125 64.20703125 C-94.32785309 64.89213776 -94.32758118 65.57724426 -94.32730103 66.28311157 C-94.30888721 76.33013108 -93.96197118 86.21032362 -92.45703125 96.15673828 C-92.11512239 98.43982413 -91.81509685 100.72660638 -91.515625 103.015625 C-87.4265759 132.88034062 -75.2578535 160.06436977 -50.9140625 178.8359375 C-43.32599146 184.24926361 -35.23607126 188.83544859 -27.03466797 193.24707031 C-25.26052991 194.204803 -23.49888949 195.18558574 -21.73828125 196.16796875 C-20.71605469 196.71710938 -19.69382812 197.26625 -18.640625 197.83203125 C-17.7640625 198.30769531 -16.8875 198.78335938 -15.984375 199.2734375 C-10.81043195 201.08573898 -6.30151315 201.01228315 -1.3515625 198.80078125 C-0.06370229 198.14139283 1.21479478 197.46346429 2.484375 196.76953125 C3.51643066 196.22703735 3.51643066 196.22703735 4.56933594 195.67358398 C6.67630859 194.55694655 8.76829293 193.41559551 10.859375 192.26953125 C11.4874707 191.93324707 12.11556641 191.59696289 12.76269531 191.25048828 C21.36082884 186.64286504 29.27032455 181.40851209 36.859375 175.26953125 C37.71144531 174.58375 38.56351563 173.89796875 39.44140625 173.19140625 C65.26491929 151.23125343 74.93893076 118.02461563 77.859375 85.26953125 C78.16992533 80.01357819 78.2122926 74.74818308 78.2644043 69.484375 C78.28614855 67.8337737 78.32044143 66.18329253 78.36694336 64.53320312 C78.43385913 62.12709295 78.46136056 59.72331428 78.48046875 57.31640625 C78.52221474 56.21628204 78.52221474 56.21628204 78.56480408 55.09393311 C78.55343682 52.26156713 78.40386125 49.97060518 76.62965393 47.68615723 C73.84944154 45.21710181 71.36970349 43.66306588 67.64453125 43.51953125 C66.88374268 43.4716748 66.1229541 43.42381836 65.33911133 43.37451172 C64.14257935 43.32254639 64.14257935 43.32254639 62.921875 43.26953125 C39.73609974 41.49132379 17.00443131 29.13262126 0.359375 13.08203125 C-2.849721 10.173788 -5.58438548 9.01637942 -9.94140625 8.890625 C-14.274422 9.6371659 -16.92812771 12.43182531 -20.140625 15.26953125 Z " fill="#0395FF" transform="translate(117.140625,20.73046875)"/>
<path d="M0 0 C9.96431178 3.2369614 19.61990402 4.97547105 30 6 C30.74264987 42.08135853 28.51283417 82.05762268 2.234375 109.6953125 C1.49703125 110.45585937 0.7596875 111.21640625 0 112 C-0.71671875 112.80179687 -1.4334375 113.60359375 -2.171875 114.4296875 C-2.85765625 115.17476563 -3.5434375 115.91984375 -4.25 116.6875 C-5.15492188 117.68330078 -5.15492188 117.68330078 -6.078125 118.69921875 C-8 120 -8 120 -10.16796875 119.77441406 C-13.68232889 118.81341834 -16.92661551 117.41231874 -20.234375 115.91015625 C-21.25232147 115.45327675 -21.25232147 115.45327675 -22.29083252 114.98716736 C-23.71736407 114.34504739 -25.14270039 113.70026621 -26.56689453 113.05297852 C-28.75302994 112.06112531 -30.94452176 111.08188593 -33.13671875 110.10351562 C-34.52377712 109.47731422 -35.91050782 108.85038641 -37.296875 108.22265625 C-37.9541156 107.92988297 -38.6113562 107.63710968 -39.28851318 107.33546448 C-43.88523269 105.22953463 -43.88523269 105.22953463 -45 103 C-44.3294458 102.99589111 -43.6588916 102.99178223 -42.96801758 102.98754883 C-39.91529609 102.95455357 -36.8645547 102.8839038 -33.8125 102.8125 C-32.75740234 102.80669922 -31.70230469 102.80089844 -30.61523438 102.79492188 C-24.25096522 102.66282081 -24.25096522 102.66282081 -18.82421875 99.57421875 C-15.87562918 95.41336109 -15.75585976 93.13213946 -16 88 C-16.58116722 85.37258355 -17.21032393 82.83334726 -17.9375 80.25 C-22.25014236 63.66114863 -22.25014236 63.66114863 -19.9375 58.73828125 C-19.48375 57.97902344 -19.03 57.21976563 -18.5625 56.4375 C-15.76656472 51.57194782 -15.46823784 47.36589509 -15.4375 41.875 C-15.42340088 41.12275146 -15.40930176 40.37050293 -15.39477539 39.59545898 C-15.53480935 31.55715738 -19.04535692 25.40521561 -24.3671875 19.53515625 C-28.85033045 15.32014386 -34.11808578 13.44046879 -40 12 C-35.35216599 8.25298474 -30.05389783 5.96153915 -24.65698242 3.48193359 C-23.43052411 2.91212967 -22.20966866 2.33010252 -20.99487305 1.73583984 C-12.98500027 -2.17845765 -8.10406719 -4.1892426 0 0 Z " fill="#0295FF" transform="translate(155,69)"/>
<path d="M0 0 C4.67314163 3.44545188 7.48911464 8.25250017 9.3046875 13.69921875 C9.86896008 20.24478067 8.65449094 25.01911727 5.3046875 30.69921875 C4.49257812 31.43011719 4.49257812 31.43011719 3.6640625 32.17578125 C2.10934399 33.61910776 2.10934399 33.61910776 2.08984375 35.765625 C2.86574381 42.7487255 4.26950187 49.50850261 5.93188477 56.32836914 C6.10776123 57.06563232 6.2836377 57.80289551 6.46484375 58.5625 C6.62605713 59.21516846 6.78727051 59.86783691 6.95336914 60.5402832 C7.3046875 62.69921875 7.3046875 62.69921875 7.3046875 68.69921875 C-5.5653125 68.69921875 -18.4353125 68.69921875 -31.6953125 68.69921875 C-30.5703125 56.32421875 -30.5703125 56.32421875 -29.50390625 51.375 C-29.28154297 50.32763672 -29.05917969 49.28027344 -28.83007812 48.20117188 C-28.59998047 47.14865234 -28.36988281 46.09613281 -28.1328125 45.01171875 C-27.89884766 43.91666016 -27.66488281 42.82160156 -27.42382812 41.69335938 C-26.85337387 39.02735886 -26.27713026 36.36275804 -25.6953125 33.69921875 C-26.6853125 33.36921875 -27.6753125 33.03921875 -28.6953125 32.69921875 C-32.91011673 26.12908275 -34.60075141 20.5506676 -33.6953125 12.69921875 C-31.82265361 6.48334495 -28.03794279 2.26097228 -22.6953125 -1.30078125 C-14.90072495 -5.02862747 -7.42419803 -4.03589582 0 0 Z " fill="#0294FF" transform="translate(121.6953125,93.30078125)"/>
</svg>
