<svg width="1735" height="357" viewBox="0 0 1735 357" fill="none" xmlns="http://www.w3.org/2000/svg">
<path d="M417.365 171.068C416.176 172.752 414.986 173.991 413.797 174.784C412.707 175.478 411.32 175.824 409.635 175.824C407.752 175.824 405.869 175.329 403.986 174.338C402.203 173.347 400.171 172.306 397.892 171.216C395.612 170.027 392.986 168.937 390.013 167.946C387.14 166.955 383.721 166.46 379.757 166.46C372.324 166.46 366.775 168.045 363.108 171.216C359.54 174.388 357.757 178.352 357.757 183.108C357.757 186.973 359.194 190.095 362.067 192.473C364.941 194.752 368.558 196.833 372.919 198.716C377.279 200.5 381.986 202.333 387.04 204.216C392.094 206.099 396.802 208.527 401.162 211.5C405.522 214.473 409.14 218.288 412.013 222.946C414.887 227.604 416.324 233.55 416.324 240.784C416.324 248.315 414.838 255.451 411.865 262.189C408.892 268.928 404.581 274.824 398.932 279.878C393.383 284.932 386.644 288.946 378.716 291.919C370.788 294.892 361.919 296.378 352.108 296.378C347.252 296.378 342.495 295.883 337.838 294.892C333.279 294 328.919 292.712 324.757 291.027C320.694 289.243 316.977 287.212 313.608 284.932C310.338 282.653 307.563 280.176 305.284 277.5L315.392 262.189C316.581 260.405 318.018 259.018 319.703 258.027C321.387 257.036 323.419 256.541 325.797 256.541C327.977 256.541 329.959 257.185 331.743 258.473C333.527 259.662 335.509 261 337.689 262.487C339.869 263.874 342.446 265.212 345.419 266.5C348.491 267.689 352.455 268.284 357.311 268.284C360.977 268.284 364.198 267.838 366.973 266.946C369.847 265.955 372.225 264.667 374.108 263.081C376.09 261.396 377.527 259.464 378.419 257.284C379.41 255.104 379.905 252.824 379.905 250.446C379.905 246.086 378.468 242.716 375.595 240.338C372.721 237.96 369.104 235.878 364.743 234.095C360.482 232.311 355.824 230.577 350.77 228.892C345.716 227.207 341.009 224.928 336.649 222.054C332.387 219.18 328.82 215.464 325.946 210.906C323.072 206.347 321.635 200.252 321.635 192.622C321.635 185.685 322.923 178.996 325.5 172.554C328.176 166.014 332.041 160.216 337.095 155.162C342.149 150.108 348.392 146.045 355.824 142.973C363.356 139.901 372.027 138.365 381.838 138.365C391.847 138.365 400.716 140.099 408.446 143.568C416.275 146.937 422.766 151.248 427.919 156.5L417.365 171.068ZM448.202 261.892C448.202 261.198 448.202 260.405 448.202 259.514C448.202 258.523 448.252 257.135 448.351 255.351C448.549 253.469 448.797 251.041 449.094 248.068C449.491 244.996 449.986 241.032 450.581 236.176L458.756 170.176H445.378C443.396 170.176 441.761 169.482 440.473 168.095C439.283 166.707 438.887 164.626 439.283 161.852L441.216 145.798L464.405 141.338L477.04 101.649C478.427 97.1895 481.45 94.9597 486.108 94.9597H508.108L502.31 141.635H538.135L534.716 170.176H498.891L491.013 233.946C490.518 238.009 490.121 241.23 489.824 243.608C489.527 245.987 489.279 247.82 489.081 249.108C488.982 250.396 488.932 251.288 488.932 251.784C488.932 252.18 488.932 252.478 488.932 252.676C488.932 256.144 489.725 258.919 491.31 261C492.896 262.982 495.274 263.973 498.445 263.973C500.229 263.973 501.765 263.775 503.054 263.378C504.342 262.883 505.432 262.387 506.324 261.892C507.315 261.297 508.207 260.802 509 260.405C509.792 259.91 510.635 259.662 511.527 259.662C512.815 259.662 513.756 259.96 514.351 260.554C514.945 261.05 515.54 261.941 516.135 263.23L525.054 282.851C519.306 287.311 513.013 290.68 506.175 292.959C499.337 295.239 492.45 296.378 485.513 296.378C474.216 296.378 465.247 293.356 458.608 287.311C452.067 281.167 448.599 272.694 448.202 261.892ZM597.48 174.933C601.345 167.797 605.408 161.703 609.669 156.649C614.03 151.595 618.539 147.68 623.196 144.906C627.854 142.032 632.611 140.397 637.467 140C642.322 139.505 647.228 140.347 652.183 142.527L644.75 181.027C638.904 178.55 633.404 177.509 628.25 177.906C623.196 178.302 618.489 180.284 614.129 183.851C609.868 187.419 606.003 192.622 602.534 199.46C599.066 206.297 596.043 214.919 593.467 225.324L585.142 294H544.859L563.44 140.595H584.548C588.809 140.595 592.129 141.635 594.507 143.716C596.886 145.797 598.075 149.117 598.075 153.676L597.48 174.933ZM729.222 166.757C724.862 166.757 720.749 167.698 716.884 169.581C713.02 171.365 709.501 173.942 706.33 177.311C703.258 180.581 700.533 184.545 698.155 189.203C695.776 193.86 693.844 199.063 692.357 204.811C703.357 203.225 712.227 201.541 718.965 199.757C725.803 197.874 731.056 195.892 734.722 193.811C738.488 191.631 740.965 189.302 742.155 186.824C743.443 184.347 744.087 181.671 744.087 178.797C744.087 177.41 743.79 176.023 743.195 174.635C742.601 173.149 741.709 171.861 740.519 170.77C739.33 169.581 737.794 168.64 735.911 167.946C734.028 167.153 731.799 166.757 729.222 166.757ZM689.087 231.122C689.087 253.815 698.65 265.162 717.776 265.162C724.119 265.162 729.272 264.369 733.236 262.784C737.299 261.099 740.767 259.315 743.641 257.432C746.515 255.451 749.141 253.667 751.519 252.081C753.997 250.396 756.821 249.554 759.992 249.554C761.38 249.554 762.668 249.901 763.857 250.595C765.146 251.189 766.285 252.032 767.276 253.122L777.682 265.608C772.33 270.959 767.128 275.568 762.073 279.432C757.019 283.198 751.767 286.369 746.317 288.946C740.866 291.423 735.168 293.257 729.222 294.446C723.276 295.635 716.736 296.23 709.601 296.23C700.583 296.23 692.357 294.694 684.925 291.622C677.493 288.55 671.101 284.239 665.749 278.689C660.497 273.041 656.384 266.302 653.411 258.473C650.538 250.545 649.101 241.725 649.101 232.014C649.101 223.887 649.993 215.96 651.776 208.23C653.56 200.5 656.137 193.167 659.506 186.23C662.875 179.293 666.938 172.951 671.695 167.203C676.551 161.356 682.051 156.352 688.195 152.189C694.339 147.928 701.029 144.608 708.263 142.23C715.596 139.852 723.375 138.662 731.601 138.662C739.628 138.662 746.713 139.852 752.857 142.23C759.101 144.509 764.303 147.532 768.465 151.297C772.628 154.964 775.749 159.077 777.83 163.635C780.01 168.194 781.1 172.752 781.1 177.311C781.1 184.149 779.713 190.442 776.938 196.189C774.164 201.937 769.308 207.09 762.371 211.649C755.434 216.108 746.019 219.973 734.128 223.243C722.236 226.415 707.222 228.892 689.087 230.676V231.122ZM894.44 167.203C893.548 167.104 892.656 167.054 891.765 167.054C890.873 167.054 889.981 167.054 889.089 167.054C881.161 167.054 873.877 168.838 867.238 172.406C860.598 175.973 854.85 180.829 849.994 186.973C845.238 193.117 841.472 200.252 838.697 208.378C836.021 216.505 834.684 225.077 834.684 234.095C834.684 244.401 836.269 251.883 839.44 256.541C842.611 261.099 846.774 263.378 851.927 263.378C855.593 263.378 859.211 262.041 862.778 259.365C866.445 256.689 869.864 253.023 873.035 248.365C876.206 243.707 879.129 238.257 881.805 232.014C884.481 225.671 886.81 218.933 888.792 211.797L894.44 167.203ZM884.332 265.162C877.792 274.775 870.458 282.356 862.332 287.905C854.305 293.455 845.436 296.23 835.724 296.23C830.075 296.23 824.675 295.14 819.521 292.959C814.467 290.68 810.008 287.311 806.143 282.851C802.278 278.293 799.206 272.595 796.927 265.757C794.747 258.82 793.657 250.743 793.657 241.527C793.657 232.311 794.796 223.392 797.076 214.77C799.355 206.05 802.625 197.874 806.886 190.243C811.148 182.613 816.301 175.626 822.346 169.284C828.49 162.843 835.278 157.343 842.711 152.784C850.242 148.225 858.368 144.707 867.089 142.23C875.909 139.653 885.174 138.365 894.886 138.365C902.021 138.365 909.156 138.91 916.292 140C923.427 140.991 930.463 142.775 937.4 145.352L918.967 294H897.116C894.539 294 892.359 293.653 890.575 292.959C888.891 292.266 887.503 291.324 886.413 290.135C885.422 288.946 884.729 287.559 884.332 285.973C883.936 284.387 883.738 282.653 883.738 280.77L884.332 265.162ZM950.448 294L969.029 140.595H990.137C994.399 140.595 997.718 141.635 1000.1 143.716C1002.48 145.797 1003.66 149.117 1003.66 153.676L1003.22 166.757C1009.96 157.144 1017.14 150.009 1024.77 145.352C1032.4 140.694 1040.43 138.365 1048.85 138.365C1057.87 138.365 1065.16 141.338 1070.7 147.284C1076.35 153.23 1079.77 161.901 1080.96 173.297C1088 161.306 1095.68 152.487 1104 146.838C1112.43 141.189 1121.74 138.365 1131.95 138.365C1138.39 138.365 1144.09 139.653 1149.04 142.23C1154.1 144.807 1158.21 148.572 1161.38 153.527C1164.65 158.482 1166.88 164.577 1168.07 171.811C1169.26 179.045 1169.26 187.32 1168.07 196.635L1156.62 294H1116.19L1127.64 196.635C1128.83 187.419 1128.53 180.928 1126.75 177.162C1125.06 173.297 1121.84 171.365 1117.08 171.365C1113.61 171.365 1110.25 172.306 1106.98 174.189C1103.8 175.973 1100.78 178.599 1097.91 182.068C1095.03 185.536 1092.36 189.748 1089.88 194.703C1087.4 199.559 1085.27 205.108 1083.49 211.351L1073.68 294H1033.25L1044.84 196.635C1045.93 187.419 1045.68 180.928 1044.1 177.162C1042.51 173.297 1039.29 171.365 1034.43 171.365C1030.87 171.365 1027.45 172.356 1024.18 174.338C1020.91 176.221 1017.79 178.946 1014.81 182.514C1011.94 186.081 1009.26 190.442 1006.79 195.595C1004.41 200.649 1002.33 206.347 1000.54 212.689L990.732 294H950.448Z" fill="#282E33"/>
<path d="M1406.97 140.743L1344.09 294H1312.28C1310.59 294 1309.25 293.455 1308.26 292.365C1307.27 291.275 1306.53 289.441 1306.03 286.865L1292.95 203.919C1292.36 199.955 1291.91 195.942 1291.61 191.879C1290.92 193.96 1290.18 196.041 1289.39 198.122C1288.59 200.104 1287.8 202.135 1287.01 204.216L1253.86 286.865C1251.88 291.622 1248.95 294 1245.09 294H1214.47L1188.9 140.743H1220.26C1222.94 140.743 1225.12 141.437 1226.8 142.825C1228.59 144.212 1229.73 145.996 1230.22 148.176L1237.06 223.987C1237.66 233.401 1238.1 242.469 1238.4 251.189C1240.08 246.73 1241.77 242.27 1243.45 237.811C1245.14 233.351 1246.97 228.743 1248.95 223.987L1278.83 147.879C1279.62 145.797 1281.01 144.063 1282.99 142.676C1285.07 141.288 1287.35 140.595 1289.83 140.595H1307.37C1310.25 140.595 1312.52 141.288 1314.21 142.676C1315.99 144.063 1316.98 145.797 1317.18 147.879L1328.18 223.987C1328.88 228.644 1329.47 233.203 1329.97 237.662C1330.56 242.122 1331.11 246.581 1331.6 251.041C1332.89 246.581 1334.23 242.171 1335.61 237.811C1337 233.351 1338.54 228.743 1340.22 223.987L1366.09 148.176C1366.88 145.996 1368.27 144.212 1370.25 142.825C1372.23 141.437 1374.46 140.743 1376.94 140.743H1406.97ZM1466.47 140.743L1448.18 294H1407.75L1426.03 140.743H1466.47ZM1475.39 97.1895C1475.39 100.658 1474.64 103.879 1473.16 106.852C1471.77 109.825 1469.89 112.451 1467.51 114.73C1465.23 117.009 1462.55 118.793 1459.48 120.081C1456.51 121.37 1453.44 122.014 1450.26 122.014C1447.09 122.014 1444.02 121.37 1441.05 120.081C1438.17 118.793 1435.6 117.009 1433.32 114.73C1431.14 112.451 1429.35 109.825 1427.97 106.852C1426.68 103.879 1426.03 100.658 1426.03 97.1895C1426.03 93.8201 1426.73 90.6489 1428.12 87.676C1429.5 84.6039 1431.29 81.9282 1433.47 79.6489C1435.75 77.3697 1438.32 75.5859 1441.2 74.2976C1444.17 72.9102 1447.24 72.2165 1450.41 72.2165C1453.68 72.2165 1456.81 72.8607 1459.78 74.1489C1462.85 75.4372 1465.53 77.221 1467.81 79.5003C1470.08 81.7796 1471.92 84.4552 1473.31 87.5273C1474.69 90.5003 1475.39 93.721 1475.39 97.1895ZM1584.78 171.068C1583.59 172.752 1582.4 173.991 1581.21 174.784C1580.12 175.478 1578.73 175.824 1577.05 175.824C1575.16 175.824 1573.28 175.329 1571.4 174.338C1569.62 173.347 1567.58 172.306 1565.3 171.216C1563.03 170.027 1560.4 168.937 1557.43 167.946C1554.55 166.955 1551.13 166.46 1547.17 166.46C1539.74 166.46 1534.19 168.045 1530.52 171.216C1526.95 174.388 1525.17 178.352 1525.17 183.108C1525.17 186.973 1526.61 190.095 1529.48 192.473C1532.35 194.752 1535.97 196.833 1540.33 198.716C1544.69 200.5 1549.4 202.333 1554.45 204.216C1559.51 206.099 1564.21 208.527 1568.57 211.5C1572.94 214.473 1576.55 218.288 1579.43 222.946C1582.3 227.604 1583.74 233.55 1583.74 240.784C1583.74 248.315 1582.25 255.451 1579.28 262.189C1576.3 268.928 1571.99 274.824 1566.35 279.878C1560.8 284.932 1554.06 288.946 1546.13 291.919C1538.2 294.892 1529.33 296.378 1519.52 296.378C1514.67 296.378 1509.91 295.883 1505.25 294.892C1500.69 294 1496.33 292.712 1492.17 291.027C1488.11 289.243 1484.39 287.212 1481.02 284.932C1477.75 282.653 1474.98 280.176 1472.7 277.5L1482.8 262.189C1483.99 260.405 1485.43 259.018 1487.12 258.027C1488.8 257.036 1490.83 256.541 1493.21 256.541C1495.39 256.541 1497.37 257.185 1499.16 258.473C1500.94 259.662 1502.92 261 1505.1 262.487C1507.28 263.874 1509.86 265.212 1512.83 266.5C1515.9 267.689 1519.87 268.284 1524.72 268.284C1528.39 268.284 1531.61 267.838 1534.39 266.946C1537.26 265.955 1539.64 264.667 1541.52 263.081C1543.5 261.396 1544.94 259.464 1545.83 257.284C1546.82 255.104 1547.32 252.824 1547.32 250.446C1547.32 246.086 1545.88 242.716 1543.01 240.338C1540.13 237.96 1536.52 235.878 1532.16 234.095C1527.89 232.311 1523.24 230.577 1518.18 228.892C1513.13 227.207 1508.42 224.928 1504.06 222.054C1499.8 219.18 1496.23 215.464 1493.36 210.906C1490.48 206.347 1489.05 200.252 1489.05 192.622C1489.05 185.685 1490.34 178.996 1492.91 172.554C1495.59 166.014 1499.45 160.216 1504.51 155.162C1509.56 150.108 1515.8 146.045 1523.24 142.973C1530.77 139.901 1539.44 138.365 1549.25 138.365C1559.26 138.365 1568.13 140.099 1575.86 143.568C1583.69 146.937 1590.18 151.248 1595.33 156.5L1584.78 171.068ZM1682.95 166.757C1678.59 166.757 1674.48 167.698 1670.62 169.581C1666.75 171.365 1663.23 173.942 1660.06 177.311C1656.99 180.581 1654.26 184.545 1651.89 189.203C1649.51 193.86 1647.57 199.063 1646.09 204.811C1657.09 203.225 1665.96 201.541 1672.7 199.757C1679.53 197.874 1684.79 195.892 1688.45 193.811C1692.22 191.631 1694.7 189.302 1695.89 186.824C1697.17 184.347 1697.82 181.671 1697.82 178.797C1697.82 177.41 1697.52 176.023 1696.93 174.635C1696.33 173.149 1695.44 171.861 1694.25 170.77C1693.06 169.581 1691.52 168.64 1689.64 167.946C1687.76 167.153 1685.53 166.757 1682.95 166.757ZM1642.82 231.122C1642.82 253.815 1652.38 265.162 1671.51 265.162C1677.85 265.162 1683 264.369 1686.97 262.784C1691.03 261.099 1694.5 259.315 1697.37 257.432C1700.25 255.451 1702.87 253.667 1705.25 252.081C1707.73 250.396 1710.55 249.554 1713.72 249.554C1715.11 249.554 1716.4 249.901 1717.59 250.595C1718.88 251.189 1720.02 252.032 1721.01 253.122L1731.41 265.608C1726.06 270.959 1720.86 275.568 1715.8 279.432C1710.75 283.198 1705.5 286.369 1700.05 288.946C1694.6 291.423 1688.9 293.257 1682.95 294.446C1677.01 295.635 1670.47 296.23 1663.33 296.23C1654.31 296.23 1646.09 294.694 1638.66 291.622C1631.22 288.55 1624.83 284.239 1619.48 278.689C1614.23 273.041 1610.12 266.302 1607.14 258.473C1604.27 250.545 1602.83 241.725 1602.83 232.014C1602.83 223.887 1603.72 215.96 1605.51 208.23C1607.29 200.5 1609.87 193.167 1613.24 186.23C1616.61 179.293 1620.67 172.951 1625.43 167.203C1630.28 161.356 1635.78 156.352 1641.93 152.189C1648.07 147.928 1654.76 144.608 1661.99 142.23C1669.33 139.852 1677.11 138.662 1685.33 138.662C1693.36 138.662 1700.44 139.852 1706.59 142.23C1712.83 144.509 1718.03 147.532 1722.2 151.297C1726.36 154.964 1729.48 159.077 1731.56 163.635C1733.74 168.194 1734.83 172.752 1734.83 177.311C1734.83 184.149 1733.44 190.442 1730.67 196.189C1727.89 201.937 1723.04 207.09 1716.1 211.649C1709.16 216.108 1699.75 219.973 1687.86 223.243C1675.97 226.415 1660.95 228.892 1642.82 230.676V231.122Z" fill="#0088EB"/>
<path d="M256.819 111.723L105.418 145.565C101.523 146.436 98.5183 149.54 97.7746 153.461L84.2736 224.648C83.2802 229.886 86.5705 234.982 91.7529 236.233L256.654 276.021C262.946 277.539 269 272.772 269 266.3V121.482C269 115.079 263.067 110.326 256.819 111.723Z" fill="#7AB7FF"/>
<path d="M104.838 85C72.2875 113.5 46.7125 127.5 13 127.5C13 231.5 54 262 104.838 294C154 269 199 234.5 199 127.5C167.613 127.5 137.387 113 104.838 85Z" fill="#0088EB" stroke="#0088EB" stroke-width="20" stroke-linejoin="round"/>
<mask id="mask0_2306_44" style="mask-type:alpha" maskUnits="userSpaceOnUse" x="78" y="121" width="160" height="150">
<path d="M214.076 121.7L86.7276 147.343C81.9694 148.301 78.5863 152.538 78.7046 157.39L80.3176 223.522C80.4258 227.956 83.4411 231.789 87.7247 232.937L225.153 269.787C231.872 271.589 238.332 266.15 237.702 259.223L226.009 130.598C225.47 124.672 219.909 120.525 214.076 121.7Z" fill="#7AB7FF"/>
</mask>
<g mask="url(#mask0_2306_44)">
<path d="M104.838 85C72.2875 113.5 46.7125 127.5 13 127.5C13 231.5 54 262 104.838 294C154 269 199 234.5 199 127.5C167.613 127.5 137.387 113 104.838 85Z" fill="#A6CFFF" stroke="#A6CFFF" stroke-width="20" stroke-linejoin="round"/>
</g>
<path d="M148.485 181.397C155.02 185.271 155.02 194.729 148.485 198.603L93.3486 231.281C86.6826 235.232 78.25 230.427 78.25 222.678L78.25 157.322C78.25 149.573 86.6826 144.768 93.3486 148.719L148.485 181.397Z" fill="white"/>
</svg>
