<svg width="270" height="233" viewBox="0 0 270 233" fill="none" xmlns="http://www.w3.org/2000/svg">
<path d="M257.819 37.7229L106.418 71.5654C102.523 72.4361 99.5183 75.5397 98.7746 79.4612L85.2736 150.648C84.2802 155.886 87.5705 160.982 92.7529 162.233L257.654 202.021C263.946 203.539 270 198.772 270 192.3V47.4821C270 41.0795 264.067 36.3262 257.819 37.7229Z" fill="#7AB7FF"/>
<path d="M110.831 2.57479C106.976 -0.57328 101.406 -0.550891 97.5988 2.65505C66.9352 28.4736 41.2545 42.4111 9.9932 44.8169C4.48663 45.2407 -0.0141428 49.6884 0.115526 55.2097C2.62284 161.971 45.6011 196.767 99.3852 230.967C102.354 232.855 106.106 233.033 109.222 231.399C161.434 204.027 208.217 165.188 210.88 55.2146C211.014 49.6934 206.514 45.2387 201.012 44.7607C171.072 42.1599 141.81 27.8691 110.831 2.57479Z" fill="#0088EB"/>
<path d="M208.694 48.75C209.5 49.5 210.5 51 211 54.5C211 109.411 198.363 145.755 179.5 173C177.469 175.934 175.674 178.821 173.5 181.5L88.5194 158.744C84.2361 157.596 81.2205 153.764 81.1121 149.33L79.4998 83.1982C79.3815 78.346 82.7642 74.1086 87.5223 73.1504L208.694 48.75Z" fill="#A6CFFF"/>
<path d="M149.485 107.397C156.02 111.271 156.02 120.729 149.485 124.603L94.3486 157.281C87.6826 161.232 79.25 156.427 79.25 148.678V83.3217C79.25 75.5729 87.6826 70.7683 94.3486 74.7191L149.485 107.397Z" fill="white"/>
</svg>
