<svg width="831" height="799" viewBox="0 0 831 799" fill="none" xmlns="http://www.w3.org/2000/svg">
<path d="M792.524 158.252L323.906 263.002C311.849 265.697 302.55 275.303 300.248 287.441L258.459 507.781C255.385 523.993 265.569 539.766 281.609 543.637L792.016 666.791C811.489 671.49 830.228 656.734 830.228 636.702V188.459C830.228 168.641 811.864 153.929 792.524 158.252Z" fill="#BFDCFF"/>
<path d="M322.109 75.5388C221.36 163.753 142.2 207.086 37.8519 207.086C37.8519 528.988 164.756 623.393 322.109 722.44C474.278 645.059 613.563 538.274 613.563 207.086C516.411 207.086 422.858 162.205 322.109 75.5388Z" fill="#0081DE" stroke="#0081DE" stroke-width="61.9044" stroke-linejoin="round"/>
<mask id="mask0_201_2" style="mask-type:alpha" maskUnits="userSpaceOnUse" x="257" y="157" width="574" height="511">
<path d="M792.524 158.252L323.906 263.002C311.849 265.697 302.55 275.303 300.248 287.441L258.459 507.781C255.385 523.993 265.569 539.766 281.609 543.637L792.016 666.791C811.489 671.49 830.228 656.734 830.228 636.702V188.459C830.228 168.641 811.864 153.929 792.524 158.252Z" fill="#7AB7FF"/>
</mask>
<g mask="url(#mask0_201_2)">
<path d="M322.109 75.5388C221.36 163.753 142.2 207.086 37.8519 207.086C37.8519 528.988 164.756 623.393 322.109 722.44C474.278 645.059 613.563 538.274 613.563 207.086C516.411 207.086 422.858 162.205 322.109 75.5388Z" fill="#76B5FF" stroke="#76B5FF" stroke-width="61.9044" stroke-linejoin="round"/>
</g>
<path fill-rule="evenodd" clip-rule="evenodd" d="M376.326 411.849C375.815 409.531 376.688 407.139 378.48 405.581C395.453 390.826 406.183 369.078 406.183 344.823C406.183 300.377 370.153 264.347 325.707 264.347C281.262 264.347 245.231 300.377 245.231 344.823C245.231 369.815 256.623 392.145 274.498 406.906C276.375 408.456 277.307 410.904 276.782 413.282L250.916 530.439C250.063 534.303 253.004 537.964 256.961 537.964H396.464C400.421 537.964 403.362 534.303 402.509 530.439L376.326 411.849Z" fill="white"/>
<path d="M38.2361 721.889L50.4028 747.958L76.4722 760.125L50.4027 772.292L38.2361 798.361L26.0694 772.292L-5.96256e-05 760.125L26.0694 747.958L38.2361 721.889Z" fill="#0081DE"/>
<path d="M651.977 0L664.144 26.0695L690.213 38.2361L664.144 50.4028L651.977 76.4723L639.81 50.4028L613.741 38.2361L639.81 26.0695L651.977 0Z" fill="#0081DE"/>
</svg>
