<svg width="1651" height="449" viewBox="0 0 1651 449" fill="none" xmlns="http://www.w3.org/2000/svg">
<g clip-path="url(#clip0_1_500)">
<path d="M316.598 124.848L165.361 179.561C162.038 180.763 159.596 183.629 158.938 187.101L145.042 260.368C144.147 265.086 146.733 269.774 151.201 271.535L316.333 336.614C322.895 339.2 330 334.363 330 327.31V134.252C330 127.319 323.117 122.49 316.598 124.848Z" fill="#7AB7FF" stroke="white" stroke-width="30" stroke-linejoin="round"/>
<path d="M175.619 108.128C169.958 103.258 161.575 103.295 155.956 108.215C124.545 135.718 102.405 147 74 147C65.7157 147 59 153.716 59 162C59 214.589 64.7003 251.593 81.1457 279.804C97.8542 308.467 124.267 325.717 159.514 342.102C163.547 343.977 168.203 343.965 172.227 342.071C204.211 327.014 230.988 310.643 249.054 282.394C267.022 254.297 275 216.653 275 162C275 153.716 268.284 147 260 147C233.63 147 206.773 134.927 175.619 108.128Z" fill="#0088EB" stroke="white" stroke-width="30" stroke-linejoin="round"/>
<path d="M316.598 124.848L165.361 179.561C162.038 180.763 159.596 183.629 158.938 187.101L145.042 260.368C144.147 265.086 146.733 269.774 151.201 271.535L316.333 336.614C322.895 339.2 330 334.363 330 327.31V134.252C330 127.319 323.117 122.49 316.598 124.848Z" fill="#7AB7FF"/>
<path d="M165.838 119.5C133.288 148 107.713 162 74 162C74 266 97 296.5 165.838 328.5C228.5 299 260 269 260 162C228.612 162 198.388 147.5 165.838 119.5Z" fill="#0088EB" stroke="#0088EB" stroke-width="20" stroke-linejoin="round"/>
<mask id="mask0_1_500" style="mask-type:alpha" maskUnits="userSpaceOnUse" x="143" y="120" width="187" height="222">
<path d="M328.66 120.485L160.536 181.306C160.204 181.426 159.96 181.713 159.894 182.06L143.654 267.687C143.565 268.159 143.823 268.627 144.27 268.803L328.633 341.461C329.29 341.72 330 341.236 330 340.531V121.425C330 120.732 329.312 120.249 328.66 120.485Z" fill="#A6CFFF"/>
</mask>
<g mask="url(#mask0_1_500)">
<path d="M165.838 119.5C133.288 148 107.713 162 74 162C74 266 97 296.5 165.838 328.5C228.5 299 260 269 260 162C228.612 162 198.388 147.5 165.838 119.5Z" fill="#A6CFFF" stroke="#A6CFFF" stroke-width="20" stroke-linejoin="round"/>
</g>
<path fill-rule="evenodd" clip-rule="evenodd" d="M183.354 227.155C183.189 226.406 183.471 225.633 184.05 225.13C189.533 220.363 193 213.336 193 205.5C193 191.141 181.359 179.5 167 179.5C152.641 179.5 141 191.141 141 205.5C141 213.574 144.68 220.789 150.455 225.558C151.062 226.059 151.363 226.849 151.193 227.617L142.836 265.469C142.561 266.717 143.511 267.9 144.789 267.9H189.86C191.138 267.9 192.088 266.717 191.813 265.469L183.354 227.155Z" fill="white"/>
</g>
<path d="M437.054 340L463.959 118.365H504.392L477.338 340H437.054ZM569.542 186.743L551.258 340H510.825L529.109 186.743H569.542ZM578.461 143.189C578.461 146.658 577.717 149.879 576.231 152.852C574.843 155.825 572.961 158.451 570.582 160.73C568.303 163.009 565.627 164.793 562.555 166.081C559.582 167.37 556.51 168.014 553.339 168.014C550.168 168.014 547.096 167.37 544.123 166.081C541.249 164.793 538.672 163.009 536.393 160.73C534.213 158.451 532.429 155.825 531.042 152.852C529.753 149.879 529.109 146.658 529.109 143.189C529.109 139.82 529.803 136.649 531.19 133.676C532.578 130.604 534.361 127.928 536.542 125.649C538.821 123.37 541.398 121.586 544.271 120.298C547.244 118.91 550.316 118.217 553.488 118.217C556.758 118.217 559.879 118.861 562.852 120.149C565.925 121.437 568.6 123.221 570.879 125.5C573.159 127.78 574.992 130.455 576.379 133.527C577.767 136.5 578.461 139.721 578.461 143.189ZM734.825 186.743L659.757 340H625.271L587.365 186.743H621.109C623.983 186.743 626.212 187.437 627.798 188.825C629.483 190.212 630.573 191.996 631.068 194.176L644.298 269.987C645.19 275.338 645.883 280.59 646.379 285.743C646.974 290.797 647.419 295.901 647.717 301.054C650.987 290.946 654.802 280.59 659.163 269.987L691.271 194.176C692.262 191.996 693.748 190.212 695.73 188.825C697.712 187.437 699.942 186.743 702.419 186.743H734.825ZM808.673 212.757C804.312 212.757 800.2 213.698 796.335 215.581C792.47 217.365 788.952 219.942 785.781 223.311C782.709 226.581 779.984 230.545 777.605 235.203C775.227 239.86 773.294 245.063 771.808 250.811C782.808 249.225 791.677 247.541 798.416 245.757C805.254 243.874 810.506 241.892 814.173 239.811C817.939 237.631 820.416 235.302 821.605 232.824C822.894 230.347 823.538 227.671 823.538 224.797C823.538 223.41 823.24 222.023 822.646 220.635C822.051 219.149 821.159 217.861 819.97 216.77C818.781 215.581 817.245 214.64 815.362 213.946C813.479 213.153 811.249 212.757 808.673 212.757ZM768.538 277.122C768.538 299.815 778.101 311.162 797.227 311.162C803.569 311.162 808.722 310.369 812.686 308.784C816.749 307.099 820.218 305.315 823.092 303.432C825.966 301.451 828.592 299.667 830.97 298.081C833.448 296.396 836.272 295.554 839.443 295.554C840.83 295.554 842.119 295.901 843.308 296.595C844.596 297.189 845.736 298.032 846.727 299.122L857.132 311.608C851.781 316.959 846.578 321.568 841.524 325.432C836.47 329.198 831.218 332.369 825.767 334.946C820.317 337.423 814.619 339.257 808.673 340.446C802.727 341.635 796.186 342.23 789.051 342.23C780.033 342.23 771.808 340.694 764.376 337.622C756.943 334.55 750.551 330.239 745.2 324.689C739.948 319.041 735.835 312.302 732.862 304.473C729.988 296.545 728.551 287.725 728.551 278.014C728.551 269.887 729.443 261.96 731.227 254.23C733.011 246.5 735.587 239.167 738.957 232.23C742.326 225.293 746.389 218.951 751.146 213.203C756.002 207.356 761.502 202.352 767.646 198.189C773.79 193.928 780.479 190.608 787.713 188.23C795.047 185.852 802.826 184.662 811.051 184.662C819.078 184.662 826.164 185.852 832.308 188.23C838.551 190.509 843.754 193.532 847.916 197.297C852.078 200.964 855.2 205.077 857.281 209.635C859.461 214.194 860.551 218.752 860.551 223.311C860.551 230.149 859.164 236.442 856.389 242.189C853.614 247.937 848.758 253.09 841.821 257.649C834.884 262.108 825.47 265.973 813.578 269.243C801.686 272.415 786.673 274.892 768.538 276.676V277.122ZM924.986 365.568C930.139 365.568 934.796 364.923 938.959 363.635C943.22 362.347 946.837 360.513 949.81 358.135C952.882 355.856 955.26 353.081 956.945 349.811C958.63 346.64 959.472 343.171 959.472 339.405C959.472 338.315 959.422 337.324 959.323 336.432C959.323 335.441 959.274 334.5 959.175 333.608C948.175 331.725 938.76 330.883 930.932 331.081C923.202 331.279 916.859 332.171 911.905 333.757C907.049 335.342 903.481 337.423 901.202 340C899.022 342.676 897.932 345.55 897.932 348.622C897.932 354.171 900.062 358.383 904.323 361.257C908.684 364.131 915.571 365.568 924.986 365.568ZM938.067 267.162C942.13 267.162 945.697 266.171 948.769 264.189C951.841 262.207 954.418 259.631 956.499 256.46C958.58 253.189 960.166 249.523 961.256 245.46C962.346 241.397 962.94 237.333 963.04 233.27C963.04 226.333 961.454 220.982 958.283 217.216C955.211 213.352 950.603 211.419 944.459 211.419C940.395 211.419 936.828 212.361 933.756 214.243C930.684 216.027 928.107 218.455 926.026 221.527C923.945 224.599 922.359 228.167 921.269 232.23C920.278 236.194 919.783 240.306 919.783 244.568C919.783 251.703 921.319 257.252 924.391 261.216C927.562 265.18 932.121 267.162 938.067 267.162ZM1023.39 192.243L1021.61 205.325C1020.91 210.478 1018.29 213.946 1013.73 215.73L999.31 220.041C1000.1 223.806 1000.5 227.721 1000.5 231.784C1000.5 238.324 999.558 243.973 997.675 248.73C995.792 253.388 993.661 257.748 991.283 261.811C989.004 265.874 986.922 270.036 985.04 274.297C983.157 278.46 982.215 283.365 982.215 289.014C982.215 293.077 982.958 296.842 984.445 300.311C986.031 303.68 987.715 307.149 989.499 310.716C991.283 314.284 992.918 318.099 994.404 322.162C995.99 326.225 996.783 330.883 996.783 336.135C996.684 343.865 994.9 351.149 991.431 357.986C988.062 364.923 983.157 370.968 976.715 376.122C970.373 381.374 962.544 385.486 953.229 388.459C943.913 391.531 933.359 393.067 921.567 393.067C911.954 393.067 903.283 392.077 895.553 390.095C887.823 388.113 881.233 385.338 875.783 381.77C870.432 378.302 866.319 374.14 863.445 369.284C860.571 364.527 859.134 359.324 859.134 353.676C859.134 346.441 860.72 340.248 863.891 335.095C866.963 329.842 871.026 325.482 876.08 322.014C881.233 318.446 887.13 315.671 893.769 313.689C900.409 311.608 907.197 310.171 914.134 309.378C921.17 308.586 928.107 308.338 934.945 308.635C941.783 308.833 948.026 309.428 953.675 310.419C953.08 307.743 952.783 304.869 952.783 301.797C952.783 296.248 954.269 290.054 957.242 283.216C953.477 285.793 949.116 287.824 944.161 289.311C939.305 290.698 933.359 291.392 926.323 291.392C920.477 291.392 914.927 290.451 909.675 288.568C904.423 286.586 899.765 283.662 895.702 279.797C891.639 275.933 888.418 271.077 886.04 265.23C883.661 259.284 882.472 252.347 882.472 244.419C882.472 236.888 883.86 229.554 886.634 222.419C889.508 215.185 893.72 208.743 899.269 203.095C904.918 197.446 911.905 192.937 920.229 189.568C928.553 186.099 938.166 184.365 949.067 184.365C954.814 184.365 960.265 185.009 965.418 186.298C970.67 187.586 975.526 189.568 979.986 192.243H1023.39ZM1174.2 186.743L1155.62 340H1134.81C1125.1 340 1120.24 335.392 1120.24 326.176L1120.69 312.351C1113.15 322.459 1104.93 329.991 1096.01 334.946C1087.19 339.802 1078.02 342.23 1068.51 342.23C1062.07 342.23 1056.27 340.941 1051.12 338.365C1045.97 335.788 1041.7 332.023 1038.33 327.068C1034.97 322.113 1032.59 316.068 1031.2 308.932C1029.81 301.698 1029.71 293.423 1030.9 284.108L1042.35 186.743H1083.38L1071.78 284.108C1070.69 293.324 1071.14 299.865 1073.12 303.73C1075.2 307.496 1078.92 309.378 1084.27 309.378C1087.83 309.378 1091.5 308.387 1095.27 306.405C1099.13 304.324 1102.8 301.401 1106.27 297.635C1109.83 293.869 1113.1 289.36 1116.08 284.108C1119.15 278.757 1121.68 272.811 1123.66 266.27L1133.32 186.743H1174.2ZM1287.74 213.203C1286.84 213.104 1285.95 213.054 1285.06 213.054C1284.17 213.054 1283.28 213.054 1282.39 213.054C1274.46 213.054 1267.17 214.838 1260.53 218.406C1253.89 221.973 1248.15 226.829 1243.29 232.973C1238.53 239.117 1234.77 246.252 1231.99 254.378C1229.32 262.505 1227.98 271.077 1227.98 280.095C1227.98 290.401 1229.57 297.883 1232.74 302.541C1235.91 307.099 1240.07 309.378 1245.22 309.378C1248.89 309.378 1252.51 308.041 1256.07 305.365C1259.74 302.689 1263.16 299.023 1266.33 294.365C1269.5 289.707 1272.43 284.257 1275.1 278.014C1277.78 271.671 1280.11 264.933 1282.09 257.797L1287.74 213.203ZM1277.63 311.162C1271.09 320.775 1263.75 328.356 1255.63 333.905C1247.6 339.455 1238.73 342.23 1229.02 342.23C1223.37 342.23 1217.97 341.14 1212.82 338.959C1207.76 336.68 1203.3 333.311 1199.44 328.851C1195.57 324.293 1192.5 318.595 1190.22 311.757C1188.04 304.82 1186.95 296.743 1186.95 287.527C1186.95 278.311 1188.09 269.392 1190.37 260.77C1192.65 252.05 1195.92 243.874 1200.18 236.243C1204.44 228.613 1209.6 221.626 1215.64 215.284C1221.79 208.843 1228.57 203.343 1236.01 198.784C1243.54 194.225 1251.66 190.707 1260.39 188.23C1269.21 185.653 1278.47 184.365 1288.18 184.365C1295.32 184.365 1302.45 184.91 1309.59 186C1316.72 186.991 1323.76 188.775 1330.7 191.352L1312.26 340H1290.41C1287.84 340 1285.66 339.653 1283.87 338.959C1282.19 338.266 1280.8 337.324 1279.71 336.135C1278.72 334.946 1278.02 333.559 1277.63 331.973C1277.23 330.387 1277.03 328.653 1277.03 326.77L1277.63 311.162ZM1396.37 220.933C1400.23 213.797 1404.29 207.703 1408.56 202.649C1412.92 197.595 1417.42 193.68 1422.08 190.906C1426.74 188.032 1431.5 186.397 1436.35 186C1441.21 185.505 1446.11 186.347 1451.07 188.527L1443.64 227.027C1437.79 224.55 1432.29 223.509 1427.14 223.906C1422.08 224.302 1417.38 226.284 1413.01 229.851C1408.75 233.419 1404.89 238.622 1401.42 245.46C1397.95 252.297 1394.93 260.919 1392.35 271.324L1384.03 340H1343.74L1362.33 186.595H1383.43C1387.69 186.595 1391.01 187.635 1393.39 189.716C1395.77 191.797 1396.96 195.117 1396.96 199.676L1396.37 220.933ZM1551.16 223.162C1547.98 220.189 1544.37 218.108 1540.3 216.919C1536.34 215.631 1532.48 214.987 1528.71 214.987C1522.76 214.987 1517.31 216.919 1512.36 220.784C1507.4 224.55 1503.14 229.554 1499.57 235.797C1496.01 241.942 1493.23 248.978 1491.25 256.906C1489.27 264.734 1488.28 272.662 1488.28 280.689C1488.28 290.896 1489.86 298.428 1493.03 303.284C1496.21 308.14 1500.62 310.568 1506.26 310.568C1509.83 310.568 1513.55 309.279 1517.41 306.703C1521.28 304.027 1524.99 300.41 1528.56 295.851C1532.13 291.293 1535.45 285.942 1538.52 279.797C1541.69 273.653 1544.37 267.063 1546.55 260.027L1551.16 223.162ZM1604.37 118.365L1576.87 340H1555.02C1552.44 340 1550.26 339.653 1548.48 338.959C1546.8 338.266 1545.46 337.324 1544.47 336.135C1543.48 334.946 1542.78 333.559 1542.39 331.973C1541.99 330.387 1541.79 328.653 1541.79 326.77L1542.53 309.378C1535.3 319.586 1527.22 327.613 1518.3 333.459C1509.48 339.306 1500.07 342.23 1490.06 342.23C1483.72 342.23 1477.92 341.09 1472.67 338.811C1467.42 336.532 1462.91 333.063 1459.14 328.405C1455.48 323.649 1452.6 317.653 1450.52 310.419C1448.54 303.185 1447.55 294.613 1447.55 284.703C1447.55 275.982 1448.44 267.46 1450.22 259.135C1452.11 250.712 1454.68 242.784 1457.95 235.351C1461.32 227.919 1465.29 221.081 1469.84 214.838C1474.5 208.595 1479.56 203.243 1485.01 198.784C1490.56 194.225 1496.45 190.707 1502.7 188.23C1509.04 185.653 1515.58 184.365 1522.32 184.365C1528.96 184.365 1534.95 185.505 1540.3 187.784C1545.66 190.063 1550.36 193.185 1554.43 197.149L1564.24 118.365H1604.37Z" fill="white"/>
<defs>
<clipPath id="clip0_1_500">
<rect width="306" height="284" fill="white" transform="translate(46 82.5)"/>
</clipPath>
</defs>
</svg>
