<svg version="1.1" id="Layer_1" xmlns="http://www.w3.org/2000/svg" xmlns:xlink="http://www.w3.org/1999/xlink" x="0px" y="0px"
	 width="100%" viewBox="0 0 1585 470" enable-background="new 0 0 1585 470" xml:space="preserve">
<path fill="#0088EB" opacity="1.000000" stroke="none" 
	d="
M215.041748,302.111145 
	C209.543137,308.052368 204.556519,314.593964 198.439896,319.810516 
	C185.498138,330.847839 171.227173,340.025421 155.949783,347.630737 
	C150.208755,350.488708 145.199814,350.912964 139.475281,347.222107 
	C122.966492,336.578125 106.580811,325.760590 92.538666,311.934174 
	C71.498413,291.217133 58.240730,266.042389 52.132980,237.267517 
	C49.699154,225.801239 48.280602,214.076126 47.116497,202.397400 
	C46.182964,193.031830 46.226200,183.560562 46.033413,174.132156 
	C45.879097,166.585312 49.536156,162.962189 57.160526,163.023453 
	C72.019493,163.142853 86.369629,159.959030 99.049797,152.702805 
	C112.163170,145.198700 124.764343,136.423218 136.318771,126.694595 
	C144.987061,119.396049 150.758530,119.257233 158.926270,126.393471 
	C174.284302,139.811890 191.155731,151.026733 210.526062,157.521469 
	C219.830887,160.641296 229.931717,161.615921 239.762299,162.833084 
	C244.059219,163.365097 247.766586,164.169159 250.891937,167.807755 
	C250.992050,168.321136 250.923508,168.712860 250.520386,168.785889 
	C225.455872,174.386734 200.785583,179.875336 176.138306,185.465469 
	C168.396881,187.221268 160.717346,189.249939 152.598801,191.192474 
	C150.397491,191.502441 148.610336,191.799530 146.815659,192.040695 
	C135.616806,193.545715 127.592712,199.299103 124.157928,210.189850 
	C120.880943,220.580307 123.498085,229.741623 131.501312,237.299835 
	C132.237610,237.995209 132.997284,239.291931 132.862030,240.173828 
	C132.325165,243.674301 131.481247,247.131256 130.670303,250.585388 
	C128.818893,258.471313 126.676064,266.301086 125.208321,274.256378 
	C124.831963,276.296326 125.911469,279.894073 127.416779,280.680328 
	C129.509872,281.773560 132.634842,280.891205 135.196564,281.228455 
	C137.195953,282.379700 139.267853,283.350922 141.446030,283.901855 
	C152.896851,286.798309 164.355972,289.666687 175.847824,292.394806 
	C188.783646,295.465729 201.757401,298.376953 214.789597,301.549011 
	C214.864548,301.740326 215.041748,302.111145 215.041748,302.111145 
z"/>
<path fill="#0088EB" opacity="1.000000" stroke="none" 
	d="
M954.656433,192.010193 
	C955.733337,193.254135 956.950562,194.546143 956.845215,195.719437 
	C956.467041,199.932358 955.891052,204.163864 954.921692,208.278061 
	C953.736267,213.309265 950.851379,217.193481 945.741699,218.964783 
	C941.761841,220.344452 937.744568,221.616394 933.484436,223.021820 
	C935.603699,236.228912 933.081848,248.509750 926.981262,260.136658 
	C925.918823,262.161743 925.093933,264.321747 923.922913,266.277985 
	C915.386536,280.538910 916.276001,294.695923 923.563477,309.220459 
	C935.722351,333.454193 931.029785,356.718323 913.668579,373.638977 
	C903.393066,383.653839 890.496338,389.692688 876.384888,391.797821 
	C865.177734,393.469757 853.631714,394.440674 842.359924,393.737518 
	C825.707214,392.698639 809.787476,388.238800 797.411499,375.871460 
	C784.776123,363.244904 785.764404,342.594574 796.362122,329.999756 
	C806.957703,317.407440 821.046387,312.276825 836.513062,310.113831 
	C845.781860,308.817596 855.203125,308.331085 864.570374,308.118103 
	C870.756287,307.977478 876.968018,308.969299 883.357239,309.468842 
	C884.095337,302.424194 884.880371,294.930573 885.634827,287.729248 
	C881.182678,289.208191 876.030823,291.548218 870.628296,292.597443 
	C853.815979,295.862427 837.828369,293.917572 824.654236,281.944885 
	C817.496094,275.439575 813.814331,266.575348 812.045654,257.105652 
	C809.796753,245.064560 811.208069,233.415833 815.896912,222.033096 
	C822.176086,206.789581 833.390503,196.625595 848.115906,190.099396 
	C860.047058,184.811523 872.801392,182.835312 885.648071,184.227402 
	C893.778564,185.108429 901.667603,188.194489 909.674133,190.255844 
	C912.167175,190.897720 914.683777,191.886902 917.200867,191.922516 
	C929.528503,192.096802 941.859924,192.002899 954.656433,192.010193 
M855.991577,231.651947 
	C855.331848,237.821365 853.842102,244.044998 854.240601,250.145294 
	C854.657837,256.531860 857.237610,262.588684 864.218567,265.088562 
	C871.652710,267.750671 877.859192,265.376556 882.696106,259.700653 
	C890.437256,250.616852 892.435486,239.656662 890.570251,228.297302 
	C888.286072,214.386459 876.294067,211.960464 866.047180,217.437805 
	C860.608948,220.344788 858.057617,225.375000 855.991577,231.651947 
M853.692505,362.999725 
	C857.285583,362.667603 860.917603,362.565186 864.464844,361.962952 
	C878.495850,359.580688 887.629761,351.721710 887.772034,336.615692 
	C887.508911,336.438171 887.255798,336.123108 886.981201,336.103058 
	C877.139221,335.384827 867.279541,334.019135 857.457092,334.246155 
	C851.306580,334.388275 844.904419,336.193848 839.165955,338.578400 
	C831.206909,341.885681 830.324463,353.449493 837.757874,358.057617 
	C842.110657,360.756073 847.724976,361.419525 853.692505,362.999725 
z"/>
<path fill="#0088EB" opacity="1.000000" stroke="none" 
	d="
M1496.544922,118.375031 
	C1511.727539,118.106018 1526.531128,118.106018 1542.402832,118.106018 
	C1533.178223,192.362595 1523.991577,266.313446 1514.721069,340.938660 
	C1504.278320,340.938660 1493.682129,341.258911 1483.120361,340.794464 
	C1478.324463,340.583557 1474.280029,333.781342 1474.024902,327.109833 
	C1473.892944,323.658142 1474.001709,320.197266 1474.001709,315.856201 
	C1470.335938,319.761261 1467.429443,323.236053 1464.137085,326.295624 
	C1453.060425,336.589111 1440.478882,343.974304 1424.868652,343.930267 
	C1404.273315,343.872223 1391.615112,334.334564 1385.044556,315.434662 
	C1379.735596,300.163330 1380.333862,284.431915 1381.899536,268.606476 
	C1383.285034,254.600449 1387.698242,241.573502 1394.032593,229.206528 
	C1403.328369,211.057449 1416.370239,196.355835 1435.533813,188.253891 
	C1453.521606,180.649124 1470.618286,182.918640 1486.640991,194.823425 
	C1489.851929,169.142303 1493.008911,143.893173 1496.544922,118.375031 
M1433.996582,245.554489 
	C1427.830322,261.706329 1424.722290,278.266815 1429.108032,295.337799 
	C1432.325073,307.860291 1442.239014,311.828064 1452.823364,303.565552 
	C1456.263794,300.879791 1459.437744,297.681946 1462.135742,294.248474 
	C1469.867188,284.409607 1475.511475,273.374298 1477.893066,261.071625 
	C1480.056885,249.893723 1481.316772,238.537613 1482.806396,227.237823 
	C1482.944336,226.191391 1482.173462,224.551804 1481.296753,223.920609 
	C1474.844116,219.274338 1460.281738,216.666306 1452.491211,221.864243 
	C1443.831665,227.641876 1438.597900,235.848328 1433.996582,245.554489 
z"/>
<path fill="#0088EB" opacity="1.000000" stroke="none" 
	d="
M1137.812622,337.296082 
	C1126.220459,329.430756 1120.262695,318.124817 1118.203613,305.289001 
	C1114.476929,282.057495 1117.626831,259.646301 1128.775024,238.515030 
	C1143.536011,210.535370 1166.800781,193.325897 1197.035156,186.343674 
	C1218.250000,181.444443 1239.800659,183.411209 1260.883301,189.328552 
	C1264.340820,190.298996 1265.482178,191.954407 1265.012085,195.293076 
	C1263.349365,207.104294 1261.672485,218.914368 1260.140625,230.742950 
	C1258.983398,239.678543 1258.103638,248.649796 1256.982544,257.590393 
	C1255.762451,267.321167 1254.370239,277.030243 1253.119751,286.757355 
	C1252.034058,295.202393 1251.008789,303.655548 1250.016724,312.112122 
	C1248.910278,321.542938 1247.871216,330.981659 1246.739746,340.973511 
	C1236.287109,340.973511 1225.832764,341.252808 1215.404541,340.852509 
	C1210.392334,340.660126 1206.319092,334.631226 1206.027954,328.282410 
	C1205.883179,325.128265 1206.002686,321.961975 1206.002686,317.914551 
	C1187.207886,339.333801 1166.573242,352.653687 1137.812622,337.296082 
M1167.912109,254.358917 
	C1162.953369,268.171692 1162.207886,282.282867 1166.096924,296.360229 
	C1169.485229,308.624573 1181.196533,308.486938 1188.203735,302.303345 
	C1195.635864,295.744843 1200.035522,287.265106 1204.086914,278.388763 
	C1212.958740,258.951721 1212.378174,237.832291 1216.151367,216.257004 
	C1210.480225,217.173599 1205.345947,217.365158 1200.636597,218.878937 
	C1183.486084,224.391922 1173.746094,237.160217 1167.912109,254.358917 
z"/>
<path fill="#0088EB" opacity="1.000000" stroke="none" 
	d="
M1103.044312,228.297943 
	C1101.698364,239.477325 1100.339478,250.194427 1099.087646,260.924042 
	C1098.307983,267.607117 1097.785767,274.320648 1096.977173,280.999847 
	C1095.778320,290.904510 1094.357056,300.782318 1093.161743,310.687378 
	C1091.964966,320.603149 1090.929321,330.538391 1089.767456,340.962891 
	C1079.560059,340.962891 1069.423950,341.333069 1059.332886,340.819153 
	C1053.601807,340.527252 1049.285278,334.557098 1049.023926,328.180786 
	C1048.895386,325.046082 1049.001709,321.901764 1049.001709,318.119202 
	C1044.952026,321.944641 1041.394409,325.389648 1037.745972,328.735809 
	C1026.914551,338.670227 1013.937744,343.754578 999.430176,343.878204 
	C979.472046,344.048309 965.874817,332.770386 961.015808,313.369385 
	C958.001892,301.335663 958.788879,289.332642 960.805420,277.210480 
	C962.336853,268.004181 962.910278,258.641296 964.015808,249.360703 
	C965.254333,238.962952 966.700195,228.589539 967.893433,218.186890 
	C969.105713,207.617569 970.119934,197.025543 971.242371,186.237289 
	C986.753784,186.237289 1002.026062,186.237289 1018.077332,186.237289 
	C1017.672852,191.297729 1017.398499,196.301712 1016.846252,201.274826 
	C1015.997620,208.916550 1014.982056,216.540161 1013.993530,224.165756 
	C1012.711121,234.058411 1011.348999,243.940811 1010.092773,253.836700 
	C1009.328857,259.854340 1008.662964,265.885162 1008.020142,271.917206 
	C1007.307007,278.607941 1006.578918,285.299316 1006.028992,292.004486 
	C1005.591492,297.339294 1006.464233,303.001465 1011.369507,305.446350 
	C1016.226624,307.867157 1022.154236,306.656219 1026.682983,303.583374 
	C1041.193970,293.737427 1049.755981,280.025879 1052.015869,262.495514 
	C1053.939575,247.572540 1056.045776,232.672882 1057.924683,217.744461 
	C1059.091431,208.473831 1059.868896,199.153061 1061.125244,189.896072 
	C1061.316650,188.485596 1063.138916,186.195099 1064.239136,186.175964 
	C1078.688354,185.924866 1093.143311,186.008926 1108.626099,186.008926 
	C1106.722168,200.360352 1104.899414,214.100647 1103.044312,228.297943 
z"/>
<path fill="#282E33" opacity="1.000000" stroke="none" 
	d="
M667.098877,244.146515 
	C674.235291,223.017395 686.423218,205.926514 705.589600,195.209274 
	C729.632629,181.765137 754.717407,178.881149 779.446350,193.831863 
	C791.101562,200.878372 797.957275,211.842987 797.787231,225.618988 
	C797.607117,240.203064 791.540588,252.214508 778.635254,260.249237 
	C766.828979,267.599731 753.754578,271.278229 740.352417,273.947906 
	C730.600647,275.890472 720.739258,277.307892 710.896667,278.755219 
	C707.578491,279.243134 706.678894,280.515533 707.656799,283.748718 
	C708.612488,286.908447 708.805359,290.298431 709.755249,293.460510 
	C712.226929,301.688690 719.140869,307.186737 727.599487,307.949982 
	C739.239807,309.000305 750.089661,307.131134 759.742188,299.927704 
	C762.622131,297.778473 766.041260,296.256561 769.379883,294.839508 
	C774.314880,292.744904 778.696655,294.674774 782.142944,298.055115 
	C785.919739,301.759552 789.296570,305.925720 792.420593,310.202637 
	C793.180664,311.243317 792.946716,314.246796 792.021973,315.092560 
	C781.325195,324.875275 770.298767,334.474823 756.153931,338.826843 
	C732.118042,346.222076 708.307434,347.640686 686.473083,332.175995 
	C670.803955,321.077911 663.143921,305.239044 662.088013,286.334747 
	C661.297546,272.181671 661.719604,258.034882 667.098877,244.146515 
M741.551147,242.179001 
	C743.926575,240.974548 746.440186,239.979782 748.650024,238.523987 
	C753.988953,235.006836 756.447327,227.898438 754.317261,222.823395 
	C752.487854,218.464767 746.671326,215.623123 741.414368,216.122818 
	C725.365417,217.648300 713.476135,235.312210 711.694092,249.864746 
	C721.770813,247.328049 731.316101,244.925125 741.551147,242.179001 
z"/>
<path fill="#282E33" opacity="1.000000" stroke="none" 
	d="
M528.852539,234.215378 
	C524.922119,218.200806 521.075500,202.593430 517.127808,186.576080 
	C519.164917,186.326126 520.442627,186.037460 521.721252,186.033203 
	C532.385803,185.997635 543.051514,185.926254 553.714905,186.042969 
	C562.412903,186.138153 566.339417,189.222900 567.645813,197.706161 
	C570.929321,219.027542 573.992981,240.383987 576.971069,261.750580 
	C578.229919,270.782349 579.025574,279.878143 580.105164,288.936066 
	C580.249878,290.150269 580.827393,291.312866 581.382202,293.058472 
	C587.743286,276.819946 593.853394,261.215118 599.968872,245.612350 
	C606.400757,229.202484 612.991760,212.852570 619.195435,196.356934 
	C621.636536,189.866196 626.298157,186.526489 632.662170,186.266541 
	C643.972046,185.804581 655.313904,186.113541 666.642273,186.146179 
	C667.233398,186.147873 667.823364,186.579620 668.967834,187.028397 
	C668.313904,188.692093 667.831360,190.210602 667.142578,191.628937 
	C654.782104,217.079651 642.388306,242.514191 630.019348,267.960785 
	C619.033508,290.561920 607.982178,313.132111 597.179565,335.820618 
	C595.343140,339.677765 593.141541,341.236145 588.824036,341.095398 
	C579.335876,340.786072 569.819824,340.729248 560.336975,341.110779 
	C555.521423,341.304565 554.098328,339.042450 553.127625,334.973511 
	C545.143372,301.504242 537.018555,268.068512 528.852539,234.215378 
z"/>
<path fill="#7AB7FF" opacity="1.000000" stroke="none" 
	d="
M250.923508,168.712860 
	C250.923508,168.712860 250.992050,168.321136 251.040207,168.128265 
	C262.293976,165.517685 273.505890,163.128677 284.702454,160.669617 
	C289.911682,159.525528 295.059998,158.085632 300.291931,157.067886 
	C306.653168,155.830444 311.995422,160.689499 311.996368,167.489151 
	C312.003143,215.769363 312.002716,264.049591 311.997253,312.329803 
	C311.996399,320.051697 307.018250,323.871857 299.215424,322.043304 
	C271.996246,315.664734 244.786667,309.245148 217.578049,302.821564 
	C216.968460,302.677643 216.413834,302.300812 215.437653,302.071899 
	C215.041748,302.111145 214.864548,301.740326 215.084702,301.331177 
	C216.449402,299.720978 217.744766,298.630066 218.714966,297.301727 
	C227.517227,285.250061 234.423386,272.187225 239.442154,258.126801 
	C247.414062,235.793030 250.465286,212.549133 251.833115,189.056778 
	C252.225586,182.315979 251.264160,175.496353 250.923508,168.712860 
z"/>
<path fill="#282E33" opacity="1.000000" stroke="none" 
	d="
M375.629028,187.558472 
	C378.099213,168.039185 380.282318,148.931396 382.852356,129.875809 
	C384.458740,117.965317 384.720428,118.000198 396.674438,118.000740 
	C405.999603,118.001167 415.328369,118.155388 424.648254,117.934166 
	C428.792542,117.835785 430.497253,119.268204 429.961304,123.422005 
	C427.713165,140.846207 425.446106,158.268433 423.315826,175.707230 
	C421.446320,191.010910 419.813110,206.343353 417.960541,221.649170 
	C415.829407,239.256134 413.547241,256.844727 411.376923,274.447021 
	C409.551117,289.254791 407.775238,304.068726 406.010406,318.883911 
	C405.265289,325.139374 404.811493,331.440613 403.739288,337.636963 
	C403.514465,338.936371 401.173309,340.795319 399.777252,340.822052 
	C386.793518,341.070435 373.803162,340.958252 360.814789,340.991425 
	C358.079956,340.998383 356.842529,339.936584 357.215240,337.050079 
	C360.122803,314.530365 363.065643,292.014679 365.825012,269.476593 
	C368.343323,248.908035 370.632812,228.311523 373.050446,207.730545 
	C373.823944,201.145767 374.684692,194.571243 375.629028,187.558472 
z"/>
<path fill="#0088EB" opacity="1.000000" stroke="none" 
	d="
M1356.271973,229.910965 
	C1343.738159,234.984192 1338.369995,245.367569 1333.899414,256.746674 
	C1329.282104,268.498901 1328.265015,280.801575 1326.929199,293.141602 
	C1325.591797,305.493103 1323.683716,317.782257 1322.072876,330.104919 
	C1321.611816,333.631622 1321.313965,337.179688 1320.911499,341.000031 
	C1312.979004,341.000031 1305.501953,341.000031 1298.024902,341.000031 
	C1290.548096,341.000031 1283.071289,341.000031 1274.973755,341.000031 
	C1275.775879,333.883301 1276.498901,327.134888 1277.306274,320.396576 
	C1278.162476,313.248932 1279.083374,306.108856 1280.003662,298.969055 
	C1281.278931,289.075195 1282.652466,279.193390 1283.848877,269.290100 
	C1284.989380,259.849945 1285.865234,250.377609 1287.026123,240.940186 
	C1288.203491,231.368271 1289.677246,221.832794 1290.851318,212.260513 
	C1291.710327,205.256653 1292.447632,198.229675 1292.935913,191.191971 
	C1293.178955,187.690292 1293.970337,185.661331 1298.103516,185.940109 
	C1306.176880,186.484650 1314.300537,186.375473 1322.354736,187.086014 
	C1329.555298,187.721176 1332.994629,192.037155 1332.999268,199.245132 
	C1333.002808,204.846420 1333.000000,210.447708 1333.000000,216.727295 
	C1336.883179,211.637543 1340.324707,207.178970 1343.710449,202.678528 
	C1352.386963,191.145737 1363.416992,184.441956 1378.339600,186.067093 
	C1381.191650,186.377686 1383.952637,187.524475 1386.800659,188.297699 
	C1383.994019,202.817154 1381.231812,217.106171 1378.704224,230.182266 
	C1370.939209,230.047195 1363.806152,229.923096 1356.271973,229.910965 
z"/>
<path fill="#282E33" opacity="1.000000" stroke="none" 
	d="
M499.180054,199.315674 
	C497.549988,212.925415 495.970978,226.089310 494.429535,239.257629 
	C492.599182,254.894226 490.840637,270.539337 488.977509,286.171997 
	C487.192871,301.146271 485.560455,316.145172 483.390289,331.064758 
	C481.937378,341.053467 481.569458,341.000580 471.435303,340.999847 
	C461.280121,340.999115 451.124054,340.917572 440.970245,341.035797 
	C437.073822,341.081177 435.857025,340.029114 436.451263,335.742188 
	C438.589905,320.314606 440.161102,304.809235 442.035522,289.343994 
	C444.228546,271.249603 446.549835,253.170776 448.749146,235.077133 
	C450.549103,220.269180 452.356903,205.460464 453.918549,190.626541 
	C454.278015,187.212372 455.633636,185.972778 458.912109,185.991653 
	C471.397522,186.063568 483.883667,186.046692 496.369354,186.007767 
	C499.518127,185.997955 501.016052,186.954498 500.196991,190.486145 
	C499.565704,193.208344 499.541718,196.071396 499.180054,199.315674 
z"/>
<path fill="#282E33" opacity="1.000000" stroke="none" 
	d="
M467.491272,121.372879 
	C483.333679,111.293633 501.586731,120.519234 507.408813,134.881271 
	C511.369019,144.650375 508.874481,155.918045 500.807037,163.686966 
	C492.264008,171.913818 480.889893,173.802155 470.977112,169.579788 
	C452.611725,161.757019 447.028900,135.169586 467.491272,121.372879 
z"/>
<path fill="#A6CFFF" opacity="1.000000" stroke="none" 
	d="
M250.520386,168.785889 
	C251.264160,175.496353 252.225586,182.315979 251.833115,189.056778 
	C250.465286,212.549133 247.414062,235.793030 239.442154,258.126801 
	C234.423386,272.187225 227.517227,285.250061 218.714966,297.301727 
	C217.744766,298.630066 216.449402,299.720978 215.009750,301.139832 
	C201.757401,298.376953 188.783646,295.465729 175.847824,292.394806 
	C164.355972,289.666687 152.896851,286.798309 141.446030,283.901855 
	C139.267853,283.350922 137.195953,282.379700 135.708145,281.059570 
	C146.301727,280.403137 156.261993,280.269623 166.222672,280.182587 
	C173.344406,280.120361 174.053543,279.355713 172.563751,272.364624 
	C170.452988,262.459534 168.017822,252.617920 166.184906,242.663788 
	C165.786346,240.499435 166.663834,237.377182 168.116425,235.708130 
	C180.852951,221.073868 175.214417,199.516251 156.819305,193.158966 
	C155.478500,192.695587 154.276184,191.831512 153.009476,191.153717 
	C160.717346,189.249939 168.396881,187.221268 176.138306,185.465469 
	C200.785583,179.875336 225.455872,174.386734 250.520386,168.785889 
z"/>
<path fill="#FEFFFF" opacity="1.000000" stroke="none" 
	d="
M152.598801,191.192474 
	C154.276184,191.831512 155.478500,192.695587 156.819305,193.158966 
	C175.214417,199.516251 180.852951,221.073868 168.116425,235.708130 
	C166.663834,237.377182 165.786346,240.499435 166.184906,242.663788 
	C168.017822,252.617920 170.452988,262.459534 172.563751,272.364624 
	C174.053543,279.355713 173.344406,280.120361 166.222672,280.182587 
	C156.261993,280.269623 146.301727,280.403137 135.829697,280.685638 
	C132.634842,280.891205 129.509872,281.773560 127.416779,280.680328 
	C125.911469,279.894073 124.831963,276.296326 125.208321,274.256378 
	C126.676064,266.301086 128.818893,258.471313 130.670303,250.585388 
	C131.481247,247.131256 132.325165,243.674301 132.862030,240.173828 
	C132.997284,239.291931 132.237610,237.995209 131.501312,237.299835 
	C123.498085,229.741623 120.880943,220.580307 124.157928,210.189850 
	C127.592712,199.299103 135.616806,193.545715 146.815659,192.040695 
	C148.610336,191.799530 150.397491,191.502441 152.598801,191.192474 
z"/>
</svg>